<svg id="Layer_1" data-name="Layer 1" xmlns="http://www.w3.org/2000/svg" viewBox="0 0 150.37 33.21"><defs><style>.cls-1{fill:#64b5a0;}</style></defs><path class="cls-1" d="M38.78-3.58A16.12,16.12,0,0,1,34.06-2.3a8.26,8.26,0,0,0,3.62-4.53,17.28,17.28,0,0,1-5.23,2,8.22,8.22,0,0,0-11.61-.38,8.2,8.2,0,0,0-2.59,6,8.52,8.52,0,0,0,.2,1.88A23.27,23.27,0,0,1,1.52-5.93,7.85,7.85,0,0,0,.41-1.8,8.24,8.24,0,0,0,4.06,5,8.23,8.23,0,0,1,.34,4v.1a8.22,8.22,0,0,0,6.58,8.06,8.27,8.27,0,0,1-2.16.29,7.16,7.16,0,0,1-1.53-.16A8.22,8.22,0,0,0,10.92,18,16.42,16.42,0,0,1,.76,21.47c-.65,0-1.3,0-1.94-.1a23.4,23.4,0,0,0,36-19.67V.63a16.77,16.77,0,0,0,4.11-4.25Z" transform="translate(1.18 8.15)"/><path class="cls-1" d="M87.08-8.15H57.8A1.79,1.79,0,0,0,56-6.36v29.3a1.82,1.82,0,0,0,1.82,1.81H73.56V12h-4.3V7.08h4.3V3.41a6,6,0,0,1,5.36-6.54,5.79,5.79,0,0,1,1,0c1.83,0,3.39.13,3.84.18V1.5H81.14c-2,0-2.45,1-2.45,2.42V7.08H83.6l-.63,5H78.69V24.79h8.38A1.82,1.82,0,0,0,88.9,23V-6.31a1.81,1.81,0,0,0-1.82-1.81h0" transform="translate(1.18 8.15)"/><path class="cls-1" d="M142.19-7.8H114.91c-3.86,0-7,3.59-7,8V17c0,4.45,3.13,8,7,8h27.28c3.86,0,7-3.57,7-8V.21C149.12-4.21,146.05-7.8,142.19-7.8ZM136.93,9.57l-12.39,7.28a.92.92,0,0,1-1.22-.34v-.12a1.25,1.25,0,0,1-.1-.51V1.29a1,1,0,0,1,1-1.1.88.88,0,0,1,.44.14L137,7.61a1.18,1.18,0,0,1,.42,1.47.92.92,0,0,1-.42.47Z" transform="translate(1.18 8.15)"/></svg>