<svg id="title" xmlns="http://www.w3.org/2000/svg" viewBox="0 0 897.67 172.13"><defs><style>.cls-1{fill:#4d4d4d;}</style></defs><path class="cls-1" d="M330.24,257.3v38.31h-4.55V267.46c0-.38,0-.78,0-1.21s.06-.86.1-1.31l-13.16,24a2,2,0,0,1-1.87,1.21h-.75a2,2,0,0,1-1.87-1.21l-13.42-24.06a25,25,0,0,1,.16,2.62v28.15h-4.55V257.3h3.82a3.3,3.3,0,0,1,1.07.13,1.59,1.59,0,0,1,.73.75l13.23,23.58c.22.43.43.88.63,1.34s.4.94.57,1.42c.18-.48.37-1,.57-1.43a12,12,0,0,1,.64-1.35l13-23.56a1.44,1.44,0,0,1,.71-.75,3.47,3.47,0,0,1,1.09-.13Z" transform="translate(-285.63 -256.23)"/><path class="cls-1" d="M360.06,291.82a9.29,9.29,0,0,1-2.12,1.86,13.38,13.38,0,0,1-2.63,1.29,15.86,15.86,0,0,1-2.9.76,17.71,17.71,0,0,1-3,.26,13.79,13.79,0,0,1-5.17-.95,11.35,11.35,0,0,1-4.1-2.78,12.7,12.7,0,0,1-2.68-4.53,18.24,18.24,0,0,1-1-6.21,15.74,15.74,0,0,1,.87-5.29,12.7,12.7,0,0,1,2.5-4.27,11.49,11.49,0,0,1,4-2.83,13,13,0,0,1,5.29-1,12.3,12.3,0,0,1,4.51.81,10.25,10.25,0,0,1,3.58,2.36,10.72,10.72,0,0,1,2.37,3.79,14.52,14.52,0,0,1,.85,5.15,3.12,3.12,0,0,1-.24,1.5,1,1,0,0,1-.91.37h-18.1a15.74,15.74,0,0,0,.71,4.47,9,9,0,0,0,1.75,3.17,7.19,7.19,0,0,0,2.67,1.9,9.22,9.22,0,0,0,3.48.63,10.08,10.08,0,0,0,3.09-.42,14.12,14.12,0,0,0,2.23-.9,15.69,15.69,0,0,0,1.57-.89,2,2,0,0,1,1.08-.42,1.07,1.07,0,0,1,.91.46Zm-3.85-12.7a9.46,9.46,0,0,0-.47-3,6.91,6.91,0,0,0-1.37-2.38,6,6,0,0,0-2.18-1.55,7.23,7.23,0,0,0-2.91-.55,7.37,7.37,0,0,0-5.42,2,9.38,9.38,0,0,0-2.47,5.53Z" transform="translate(-285.63 -256.23)"/><path class="cls-1" d="M388.72,256.23v39.38h-2.83a1.22,1.22,0,0,1-1.29-1l-.43-3.28a14.67,14.67,0,0,1-3.95,3.37,10.13,10.13,0,0,1-5.14,1.28,9.7,9.7,0,0,1-4.22-.9,8.64,8.64,0,0,1-3.24-2.63,12.54,12.54,0,0,1-2.06-4.33,22.4,22.4,0,0,1-.72-6,18.84,18.84,0,0,1,.8-5.57,14.06,14.06,0,0,1,2.3-4.48,10.65,10.65,0,0,1,3.68-3,10.9,10.9,0,0,1,4.91-1.09,9.9,9.9,0,0,1,4.26.85,10.27,10.27,0,0,1,3.17,2.34v-15ZM384,275a7.66,7.66,0,0,0-2.89-2.5,8.28,8.28,0,0,0-3.47-.71,6.84,6.84,0,0,0-5.81,2.7q-2,2.7-2,7.7a19.24,19.24,0,0,0,.46,4.54,8.67,8.67,0,0,0,1.33,3.1,5.31,5.31,0,0,0,2.17,1.78,7.3,7.3,0,0,0,2.91.56,7.77,7.77,0,0,0,4.11-1.07,11.68,11.68,0,0,0,3.22-3Z" transform="translate(-285.63 -256.23)"/><path class="cls-1" d="M402.3,260a3,3,0,0,1-.28,1.3,3.6,3.6,0,0,1-.74,1.07,3.41,3.41,0,0,1-1.1.73,3.32,3.32,0,0,1-1.32.27,3.12,3.12,0,0,1-1.3-.27,3.24,3.24,0,0,1-1.06-.73,3.73,3.73,0,0,1-.72-1.07,3.12,3.12,0,0,1-.27-1.3,3.32,3.32,0,0,1,.27-1.32,3.74,3.74,0,0,1,.72-1.1,3.4,3.4,0,0,1,1.06-.73,3.12,3.12,0,0,1,1.3-.27,3.32,3.32,0,0,1,1.32.27A3.39,3.39,0,0,1,402,258.7,3.16,3.16,0,0,1,402.3,260Zm-1,8.51v27.08h-4.76V268.53Z" transform="translate(-285.63 -256.23)"/><path class="cls-1" d="M408.4,272.35a15.69,15.69,0,0,1,4.84-3.24A15,15,0,0,1,419,268a10.25,10.25,0,0,1,4,.75,8.36,8.36,0,0,1,3,2.09,8.82,8.82,0,0,1,1.81,3.24,13.42,13.42,0,0,1,.62,4.17v17.32h-2.11a2.08,2.08,0,0,1-1.07-.22,1.53,1.53,0,0,1-.59-.9l-.54-2.57a26,26,0,0,1-2.08,1.76A12.62,12.62,0,0,1,419.9,295a11.78,11.78,0,0,1-2.39.8,13,13,0,0,1-2.82.28,9.52,9.52,0,0,1-3-.44,6.68,6.68,0,0,1-2.42-1.32,6.21,6.21,0,0,1-1.63-2.24,7.63,7.63,0,0,1-.61-3.19,6,6,0,0,1,.89-3.09,7.67,7.67,0,0,1,2.86-2.63,18.66,18.66,0,0,1,5.16-1.89,39.25,39.25,0,0,1,7.81-.84v-2.11a7.25,7.25,0,0,0-1.37-4.78,4.93,4.93,0,0,0-4-1.61,8.47,8.47,0,0,0-3,.44,10.3,10.3,0,0,0-2.05,1q-.87.54-1.5,1a2.21,2.21,0,0,1-1.25.44,1.34,1.34,0,0,1-.82-.26,2.22,2.22,0,0,1-.59-.63Zm15.38,11.07a40.59,40.59,0,0,0-5.61.52A16.55,16.55,0,0,0,414.4,285a5.33,5.33,0,0,0-2.11,1.58,3.4,3.4,0,0,0-.65,2,4.51,4.51,0,0,0,.34,1.84,3.51,3.51,0,0,0,.95,1.27,3.81,3.81,0,0,0,1.42.72,6.55,6.55,0,0,0,1.75.23,9.65,9.65,0,0,0,2.3-.25,8.79,8.79,0,0,0,2-.74,10.84,10.84,0,0,0,1.76-1.15,16.49,16.49,0,0,0,1.65-1.52Z" transform="translate(-285.63 -256.23)"/><path class="cls-1" d="M443.65,296a6.56,6.56,0,0,1-4.94-1.79,7.13,7.13,0,0,1-1.72-5.16V272.51h-3.27a1.07,1.07,0,0,1-.72-.25,1,1,0,0,1-.29-.79v-1.9l4.44-.56,1.09-8.37a1.26,1.26,0,0,1,.36-.66,1.07,1.07,0,0,1,.74-.25h2.41v9.33h7.83v3.45h-7.83v16.26a3.42,3.42,0,0,0,.83,2.54,2.89,2.89,0,0,0,2.13.83,3.86,3.86,0,0,0,1.3-.2,6.06,6.06,0,0,0,.95-.44c.27-.16.5-.31.68-.44a.9.9,0,0,1,.5-.21.84.84,0,0,1,.67.46l1.39,2.27a8.87,8.87,0,0,1-3,1.81A10.21,10.21,0,0,1,443.65,296Z" transform="translate(-285.63 -256.23)"/><path class="cls-1" d="M476.35,291.82a9.24,9.24,0,0,1-2.11,1.86A13.46,13.46,0,0,1,471.6,295a15.65,15.65,0,0,1-2.9.76,17.71,17.71,0,0,1-3,.26,13.82,13.82,0,0,1-5.17-.95,11.31,11.31,0,0,1-4.09-2.78,12.72,12.72,0,0,1-2.69-4.53,18.49,18.49,0,0,1-1-6.21,15.74,15.74,0,0,1,.87-5.29,12.53,12.53,0,0,1,2.5-4.27,11.36,11.36,0,0,1,4-2.83,13,13,0,0,1,5.29-1,12.26,12.26,0,0,1,4.51.81,10.16,10.16,0,0,1,3.58,2.36,10.72,10.72,0,0,1,2.37,3.79,14.52,14.52,0,0,1,.86,5.15,3.12,3.12,0,0,1-.24,1.5,1,1,0,0,1-.91.37H457.52a16.1,16.1,0,0,0,.71,4.47,9,9,0,0,0,1.75,3.17,7.14,7.14,0,0,0,2.68,1.9,9.13,9.13,0,0,0,3.47.63,10,10,0,0,0,3.09-.42,14.27,14.27,0,0,0,2.24-.9A16.61,16.61,0,0,0,473,290a2.06,2.06,0,0,1,1.08-.42,1.06,1.06,0,0,1,.91.46Zm-3.85-12.7a9.46,9.46,0,0,0-.47-3,6.89,6.89,0,0,0-1.36-2.38,6.2,6.2,0,0,0-2.18-1.55,8.24,8.24,0,0,0-8.33,1.44,9.33,9.33,0,0,0-2.48,5.53Z" transform="translate(-285.63 -256.23)"/><path class="cls-1" d="M502.34,260a3,3,0,0,1-.28,1.3,3.82,3.82,0,0,1-.75,1.07,3.49,3.49,0,0,1-2.42,1,3.26,3.26,0,0,1-2.35-1,3.36,3.36,0,0,1-.72-1.07,3.12,3.12,0,0,1-.27-1.3,3.32,3.32,0,0,1,.27-1.32,3.4,3.4,0,0,1,1.77-1.83,3.19,3.19,0,0,1,1.3-.27,3.32,3.32,0,0,1,1.32.27,3.47,3.47,0,0,1,1.1.73,3.83,3.83,0,0,1,.75,1.1A3.16,3.16,0,0,1,502.34,260Zm-1,8.51v27.08h-4.76V268.53Z" transform="translate(-285.63 -256.23)"/><path class="cls-1" d="M524.91,273a1.07,1.07,0,0,1-1,.59,1.92,1.92,0,0,1-.91-.29c-.34-.2-.75-.42-1.24-.66A12.32,12.32,0,0,0,520,272a8.43,8.43,0,0,0-2.4-.31,7.29,7.29,0,0,0-2.17.31,5.39,5.39,0,0,0-1.64.84,3.88,3.88,0,0,0-1,1.25,3.33,3.33,0,0,0-.36,1.54,2.51,2.51,0,0,0,.61,1.73,5.14,5.14,0,0,0,1.59,1.21,13.23,13.23,0,0,0,2.24.89c.84.26,1.7.54,2.58.83s1.75.62,2.58,1a9.28,9.28,0,0,1,2.25,1.33,6.12,6.12,0,0,1,1.59,2,6,6,0,0,1,.6,2.79,8.8,8.8,0,0,1-.67,3.47,7.45,7.45,0,0,1-2,2.75,9.49,9.49,0,0,1-3.21,1.83,13.11,13.11,0,0,1-4.39.67,13.74,13.74,0,0,1-5.13-.92,12.92,12.92,0,0,1-3.91-2.37l1.13-1.82a1.6,1.6,0,0,1,.5-.53,1.44,1.44,0,0,1,.75-.19,1.82,1.82,0,0,1,1,.38c.36.25.79.52,1.3.83a9.78,9.78,0,0,0,1.85.83,8.83,8.83,0,0,0,2.73.37,7.51,7.51,0,0,0,2.44-.36,5.08,5.08,0,0,0,1.73-1,3.78,3.78,0,0,0,1-1.41,4.33,4.33,0,0,0,.34-1.72,2.82,2.82,0,0,0-.6-1.85,5.27,5.27,0,0,0-1.6-1.26,12.81,12.81,0,0,0-2.26-.91c-.84-.26-1.71-.53-2.59-.82s-1.75-.61-2.59-1a9.3,9.3,0,0,1-2.26-1.38,6.18,6.18,0,0,1-1.59-2,6.68,6.68,0,0,1-.6-3,7.16,7.16,0,0,1,.64-3,7.34,7.34,0,0,1,1.87-2.52,9.32,9.32,0,0,1,3-1.72,12,12,0,0,1,4.09-.64,13,13,0,0,1,4.8.84,11.38,11.38,0,0,1,3.68,2.31Z" transform="translate(-285.63 -256.23)"/><path class="cls-1" d="M550.5,274a12.22,12.22,0,0,1,3.15-4.34,6.94,6.94,0,0,1,4.58-1.57,7.36,7.36,0,0,1,1.64.19,4.41,4.41,0,0,1,1.4.59l-.34,3.56a.78.78,0,0,1-.81.67,6.14,6.14,0,0,1-1.09-.16,7.35,7.35,0,0,0-1.63-.17,6.51,6.51,0,0,0-2.29.38,5.28,5.28,0,0,0-1.79,1.11A7.82,7.82,0,0,0,551.9,276a14.54,14.54,0,0,0-1.13,2.47v17.11H546V268.53h2.73a1.51,1.51,0,0,1,1.07.29,1.87,1.87,0,0,1,.4,1Z" transform="translate(-285.63 -256.23)"/><path class="cls-1" d="M586.33,291.82a9.24,9.24,0,0,1-2.11,1.86,13.46,13.46,0,0,1-2.64,1.29,15.65,15.65,0,0,1-2.9.76,17.62,17.62,0,0,1-3,.26,13.82,13.82,0,0,1-5.17-.95,11.31,11.31,0,0,1-4.09-2.78,12.72,12.72,0,0,1-2.69-4.53,18.49,18.49,0,0,1-1-6.21,15.74,15.74,0,0,1,.87-5.29,12.53,12.53,0,0,1,2.5-4.27,11.45,11.45,0,0,1,4-2.83,13.05,13.05,0,0,1,5.3-1,12.24,12.24,0,0,1,4.5.81,10.29,10.29,0,0,1,3.59,2.36,10.85,10.85,0,0,1,2.36,3.79,14.52,14.52,0,0,1,.86,5.15,3.12,3.12,0,0,1-.24,1.5,1,1,0,0,1-.91.37h-18.1a15.76,15.76,0,0,0,.7,4.47,9,9,0,0,0,1.76,3.17,7.11,7.11,0,0,0,2.67,1.9,9.14,9.14,0,0,0,3.48.63,10.13,10.13,0,0,0,3.09-.42,14.53,14.53,0,0,0,2.23-.9A16.61,16.61,0,0,0,583,290a2.06,2.06,0,0,1,1.08-.42,1,1,0,0,1,.91.46Zm-3.85-12.7a9.46,9.46,0,0,0-.47-3,6.73,6.73,0,0,0-1.36-2.38,6.11,6.11,0,0,0-2.18-1.55,8.24,8.24,0,0,0-8.33,1.44,9.32,9.32,0,0,0-2.47,5.53Z" transform="translate(-285.63 -256.23)"/><path class="cls-1" d="M608.36,273a1,1,0,0,1-1,.59,1.88,1.88,0,0,1-.91-.29c-.34-.2-.76-.42-1.25-.66a12.16,12.16,0,0,0-1.75-.67,8.55,8.55,0,0,0-2.41-.31,7.22,7.22,0,0,0-2.16.31,5.57,5.57,0,0,0-1.65.84,3.84,3.84,0,0,0-1,1.25,3.33,3.33,0,0,0-.36,1.54,2.55,2.55,0,0,0,.6,1.73,5.14,5.14,0,0,0,1.59,1.21,13,13,0,0,0,2.25.89c.84.26,1.7.54,2.58.83s1.74.62,2.58,1a9.28,9.28,0,0,1,2.25,1.33,6.12,6.12,0,0,1,1.59,2,6,6,0,0,1,.6,2.79,8.8,8.8,0,0,1-.67,3.47,7.6,7.6,0,0,1-2,2.75,9.3,9.3,0,0,1-3.21,1.83,13,13,0,0,1-4.38.67,13.84,13.84,0,0,1-5.14-.92,13,13,0,0,1-3.9-2.37l1.12-1.82a1.62,1.62,0,0,1,.51-.53,1.44,1.44,0,0,1,.75-.19,1.77,1.77,0,0,1,1,.38c.36.25.79.52,1.3.83a10.2,10.2,0,0,0,1.86.83,8.83,8.83,0,0,0,2.73.37,7.44,7.44,0,0,0,2.43-.36,5,5,0,0,0,1.74-1,3.89,3.89,0,0,0,1-1.41,4.5,4.5,0,0,0,.33-1.72,2.82,2.82,0,0,0-.6-1.85,5.1,5.1,0,0,0-1.59-1.26,12.81,12.81,0,0,0-2.26-.91c-.85-.26-1.71-.53-2.59-.82s-1.75-.61-2.6-1a9.49,9.49,0,0,1-2.26-1.38,6.18,6.18,0,0,1-1.59-2,6.68,6.68,0,0,1-.6-3,7.16,7.16,0,0,1,.64-3,7.47,7.47,0,0,1,1.87-2.52,9.27,9.27,0,0,1,3-1.72,12,12,0,0,1,4.09-.64,13,13,0,0,1,4.8.84,11.34,11.34,0,0,1,3.67,2.31Z" transform="translate(-285.63 -256.23)"/><path class="cls-1" d="M637.73,291.82a9.29,9.29,0,0,1-2.12,1.86A13.38,13.38,0,0,1,633,295a15.86,15.86,0,0,1-2.9.76,17.71,17.71,0,0,1-3,.26,13.79,13.79,0,0,1-5.17-.95,11.35,11.35,0,0,1-4.1-2.78,12.7,12.7,0,0,1-2.68-4.53,18.24,18.24,0,0,1-1-6.21,15.74,15.74,0,0,1,.87-5.29,12.7,12.7,0,0,1,2.5-4.27,11.49,11.49,0,0,1,4-2.83,13,13,0,0,1,5.29-1,12.3,12.3,0,0,1,4.51.81,10.25,10.25,0,0,1,3.58,2.36,10.72,10.72,0,0,1,2.37,3.79,14.52,14.52,0,0,1,.85,5.15,3.12,3.12,0,0,1-.24,1.5,1,1,0,0,1-.91.37H618.9a15.74,15.74,0,0,0,.71,4.47,9,9,0,0,0,1.75,3.17,7.19,7.19,0,0,0,2.67,1.9,9.22,9.22,0,0,0,3.48.63,10.08,10.08,0,0,0,3.09-.42,14.12,14.12,0,0,0,2.23-.9,15.69,15.69,0,0,0,1.57-.89,2,2,0,0,1,1.08-.42,1.07,1.07,0,0,1,.91.46Zm-3.85-12.7a9.46,9.46,0,0,0-.47-3A6.91,6.91,0,0,0,632,273.7a6,6,0,0,0-2.18-1.55,7.23,7.23,0,0,0-2.91-.55,7.37,7.37,0,0,0-5.42,2,9.38,9.38,0,0,0-2.47,5.53Z" transform="translate(-285.63 -256.23)"/><path class="cls-1" d="M643.29,272.35a15.58,15.58,0,0,1,4.84-3.24,15,15,0,0,1,5.75-1.07,10.2,10.2,0,0,1,4,.75,8.28,8.28,0,0,1,3,2.09,8.84,8.84,0,0,1,1.82,3.24,13.42,13.42,0,0,1,.62,4.17v17.32H661.2a2.11,2.11,0,0,1-1.07-.22,1.58,1.58,0,0,1-.59-.9l-.53-2.57a26.07,26.07,0,0,1-2.09,1.76,12.53,12.53,0,0,1-2.13,1.28,11.66,11.66,0,0,1-2.4.8,13,13,0,0,1-2.82.28,9.61,9.61,0,0,1-3-.44,6.85,6.85,0,0,1-2.42-1.32,6.33,6.33,0,0,1-1.63-2.24,7.79,7.79,0,0,1-.6-3.19,6,6,0,0,1,.88-3.09,7.67,7.67,0,0,1,2.86-2.63,18.66,18.66,0,0,1,5.16-1.89,39.42,39.42,0,0,1,7.81-.84v-2.11a7.25,7.25,0,0,0-1.36-4.78,5,5,0,0,0-4-1.61,8.41,8.41,0,0,0-2.95.44,10.68,10.68,0,0,0-2.06,1q-.87.54-1.5,1a2.18,2.18,0,0,1-1.24.44,1.37,1.37,0,0,1-.83-.26,2.37,2.37,0,0,1-.59-.63Zm15.37,11.07a40.43,40.43,0,0,0-5.6.52,16.4,16.4,0,0,0-3.77,1.08,5.25,5.25,0,0,0-2.11,1.58,3.41,3.41,0,0,0-.66,2,4.51,4.51,0,0,0,.35,1.84,3.4,3.4,0,0,0,1,1.27,3.74,3.74,0,0,0,1.42.72,6.5,6.5,0,0,0,1.75.23,9.71,9.71,0,0,0,2.3-.25,8.71,8.71,0,0,0,2-.74,10.51,10.51,0,0,0,1.77-1.15,15.39,15.39,0,0,0,1.64-1.52Z" transform="translate(-285.63 -256.23)"/><path class="cls-1" d="M675.08,274a12.24,12.24,0,0,1,3.16-4.34,6.89,6.89,0,0,1,4.57-1.57,7.29,7.29,0,0,1,1.64.19,4.47,4.47,0,0,1,1.41.59l-.35,3.56a.78.78,0,0,1-.8.67,6.1,6.1,0,0,1-1.1-.16,7.35,7.35,0,0,0-1.63-.17,6.51,6.51,0,0,0-2.29.38,5.38,5.38,0,0,0-1.79,1.11,8.09,8.09,0,0,0-1.42,1.82,16.28,16.28,0,0,0-1.13,2.47v17.11h-4.79V268.53h2.73a1.49,1.49,0,0,1,1.07.29,1.87,1.87,0,0,1,.4,1Z" transform="translate(-285.63 -256.23)"/><path class="cls-1" d="M707.78,273.34a1.85,1.85,0,0,1-.42.45,1,1,0,0,1-.59.16,1.58,1.58,0,0,1-.88-.33c-.33-.22-.72-.47-1.19-.73a9.57,9.57,0,0,0-1.74-.74,9.49,9.49,0,0,0-6.06.37,6.8,6.8,0,0,0-2.55,2.05,9,9,0,0,0-1.55,3.24,15.91,15.91,0,0,0-.52,4.25,15.35,15.35,0,0,0,.56,4.37,9.28,9.28,0,0,0,1.59,3.21,6.89,6.89,0,0,0,2.48,2,7.76,7.76,0,0,0,3.28.68,8.26,8.26,0,0,0,2.86-.42,8.05,8.05,0,0,0,1.86-.92c.49-.34.9-.64,1.23-.92a1.51,1.51,0,0,1,1-.42,1.07,1.07,0,0,1,.91.46l1.33,1.74a9.56,9.56,0,0,1-2,1.87,12.5,12.5,0,0,1-2.42,1.3,13.68,13.68,0,0,1-2.72.76,17.25,17.25,0,0,1-2.89.24,11.69,11.69,0,0,1-4.71-.94,10.73,10.73,0,0,1-3.79-2.71,12.63,12.63,0,0,1-2.51-4.37,19.34,19.34,0,0,1-.07-11.5,12.66,12.66,0,0,1,2.46-4.43,11.23,11.23,0,0,1,4-2.9,13.43,13.43,0,0,1,5.44-1,13,13,0,0,1,5,.92,12.19,12.19,0,0,1,3.86,2.61Z" transform="translate(-285.63 -256.23)"/><path class="cls-1" d="M719.26,272.14a14.59,14.59,0,0,1,3.85-2.95A10.39,10.39,0,0,1,728,268.1a9.79,9.79,0,0,1,3.92.73,7.64,7.64,0,0,1,2.84,2.09,9.26,9.26,0,0,1,1.72,3.25,14.16,14.16,0,0,1,.59,4.2v17.24h-4.79V278.37a7.36,7.36,0,0,0-1.4-4.78,5.23,5.23,0,0,0-4.27-1.69,7.94,7.94,0,0,0-3.94,1,13,13,0,0,0-3.38,2.76v19.94h-4.79V256.23h4.79Z" transform="translate(-285.63 -256.23)"/><path class="cls-1" d="M757.31,272.35a15.58,15.58,0,0,1,4.84-3.24A15,15,0,0,1,767.9,268a10.2,10.2,0,0,1,4,.75,8.28,8.28,0,0,1,3,2.09,8.84,8.84,0,0,1,1.82,3.24,13.42,13.42,0,0,1,.61,4.17v17.32h-2.11a2.11,2.11,0,0,1-1.07-.22,1.58,1.58,0,0,1-.59-.9l-.53-2.57a26.07,26.07,0,0,1-2.09,1.76A12.24,12.24,0,0,1,768.8,295a11.38,11.38,0,0,1-2.39.8,13,13,0,0,1-2.82.28,9.61,9.61,0,0,1-3-.44,6.85,6.85,0,0,1-2.42-1.32,6.33,6.33,0,0,1-1.63-2.24,7.79,7.79,0,0,1-.6-3.19,6,6,0,0,1,.88-3.09,7.67,7.67,0,0,1,2.86-2.63,18.66,18.66,0,0,1,5.16-1.89,39.42,39.42,0,0,1,7.81-.84v-2.11a7.25,7.25,0,0,0-1.36-4.78,5,5,0,0,0-4-1.61,8.41,8.41,0,0,0-3,.44,10.68,10.68,0,0,0-2.06,1q-.87.54-1.5,1a2.18,2.18,0,0,1-1.24.44,1.37,1.37,0,0,1-.83-.26,2.37,2.37,0,0,1-.59-.63Zm15.37,11.07a40.43,40.43,0,0,0-5.6.52,16.4,16.4,0,0,0-3.77,1.08,5.25,5.25,0,0,0-2.11,1.58,3.41,3.41,0,0,0-.66,2,4.51,4.51,0,0,0,.35,1.84,3.4,3.4,0,0,0,1,1.27,3.74,3.74,0,0,0,1.42.72,6.5,6.5,0,0,0,1.75.23,9.71,9.71,0,0,0,2.3-.25,8.71,8.71,0,0,0,2-.74,10.51,10.51,0,0,0,1.77-1.15,15.39,15.39,0,0,0,1.64-1.52Z" transform="translate(-285.63 -256.23)"/><path class="cls-1" d="M789.07,272.46a15.8,15.8,0,0,1,1.88-1.79,12.18,12.18,0,0,1,2.09-1.38,10.79,10.79,0,0,1,2.36-.88,10.91,10.91,0,0,1,2.69-.31,9.74,9.74,0,0,1,3.91.73,7.64,7.64,0,0,1,2.84,2.09,9.26,9.26,0,0,1,1.72,3.25,14.16,14.16,0,0,1,.59,4.2v17.24h-4.79V278.37a7.3,7.3,0,0,0-1.4-4.78,5.22,5.22,0,0,0-4.26-1.69,8,8,0,0,0-4,1,13,13,0,0,0-3.38,2.76v19.94h-4.79V268.53h2.86a1.18,1.18,0,0,1,1.26,1Z" transform="translate(-285.63 -256.23)"/><path class="cls-1" d="M836.83,256.23v39.38H834a1.22,1.22,0,0,1-1.29-1l-.42-3.28a14.86,14.86,0,0,1-4,3.37,10.13,10.13,0,0,1-5.14,1.28,9.73,9.73,0,0,1-4.22-.9,8.64,8.64,0,0,1-3.24-2.63,12.72,12.72,0,0,1-2.06-4.33,22.4,22.4,0,0,1-.72-6,18.84,18.84,0,0,1,.8-5.57,14.06,14.06,0,0,1,2.3-4.48,10.65,10.65,0,0,1,3.68-3,10.9,10.9,0,0,1,4.91-1.09,9.86,9.86,0,0,1,4.26.85,10.16,10.16,0,0,1,3.17,2.34v-15ZM832.07,275a7.66,7.66,0,0,0-2.89-2.5,8.28,8.28,0,0,0-3.47-.71,6.81,6.81,0,0,0-5.8,2.7q-2,2.7-2,7.7a19.24,19.24,0,0,0,.46,4.54,8.67,8.67,0,0,0,1.34,3.1,5.22,5.22,0,0,0,2.16,1.78,7.31,7.31,0,0,0,2.92.56,7.76,7.76,0,0,0,4.1-1.07,11.68,11.68,0,0,0,3.22-3Z" transform="translate(-285.63 -256.23)"/><path class="cls-1" d="M864.11,260a3.13,3.13,0,0,1-.28,1.3,3.82,3.82,0,0,1-.75,1.07,3.41,3.41,0,0,1-1.1.73,3.32,3.32,0,0,1-1.32.27,3.12,3.12,0,0,1-1.3-.27,3.35,3.35,0,0,1-1.06-.73,3.73,3.73,0,0,1-.72-1.07,3.12,3.12,0,0,1-.27-1.3,3.32,3.32,0,0,1,.27-1.32,3.74,3.74,0,0,1,.72-1.1,3.52,3.52,0,0,1,1.06-.73,3.12,3.12,0,0,1,1.3-.27,3.32,3.32,0,0,1,1.32.27,3.58,3.58,0,0,1,1.1.73,3.83,3.83,0,0,1,.75,1.1A3.33,3.33,0,0,1,864.11,260Zm-1,8.51v27.08h-4.76V268.53Z" transform="translate(-285.63 -256.23)"/><path class="cls-1" d="M875.39,272.46a15.72,15.72,0,0,1,1.87-1.79,11.88,11.88,0,0,1,2.1-1.38,10.71,10.71,0,0,1,2.35-.88,11,11,0,0,1,2.69-.31,9.79,9.79,0,0,1,3.92.73,7.53,7.53,0,0,1,2.83,2.09,9.11,9.11,0,0,1,1.73,3.25,14.16,14.16,0,0,1,.59,4.2v17.24h-4.79V278.37a7.36,7.36,0,0,0-1.4-4.78A5.23,5.23,0,0,0,883,271.9a7.94,7.94,0,0,0-3.94,1,13.19,13.19,0,0,0-3.39,2.76v19.94H870.9V268.53h2.86a1.18,1.18,0,0,1,1.26,1Z" transform="translate(-285.63 -256.23)"/><path class="cls-1" d="M905.23,272.46a15.72,15.72,0,0,1,1.87-1.79,11.88,11.88,0,0,1,2.1-1.38,10.61,10.61,0,0,1,2.36-.88,10.89,10.89,0,0,1,2.68-.31,9.79,9.79,0,0,1,3.92.73,7.64,7.64,0,0,1,2.84,2.09,9.26,9.26,0,0,1,1.72,3.25,14.16,14.16,0,0,1,.59,4.2v17.24h-4.79V278.37a7.36,7.36,0,0,0-1.4-4.78,5.23,5.23,0,0,0-4.27-1.69,8,8,0,0,0-3.94,1,13,13,0,0,0-3.38,2.76v19.94h-4.79V268.53h2.86a1.18,1.18,0,0,1,1.26,1Z" transform="translate(-285.63 -256.23)"/><path class="cls-1" d="M942,268.1a13.82,13.82,0,0,1,5.35,1,11.39,11.39,0,0,1,4.06,2.81,12.07,12.07,0,0,1,2.58,4.39,18.95,18.95,0,0,1,0,11.54,12.15,12.15,0,0,1-2.58,4.39,11.34,11.34,0,0,1-4.06,2.79,14,14,0,0,1-5.35,1,14.18,14.18,0,0,1-5.39-1,11.41,11.41,0,0,1-4.08-2.79,12.44,12.44,0,0,1-2.58-4.39,19.15,19.15,0,0,1,0-11.54,12.35,12.35,0,0,1,2.58-4.39,11.46,11.46,0,0,1,4.08-2.81A14,14,0,0,1,942,268.1Zm0,24.17a6.94,6.94,0,0,0,6-2.69q2-2.68,2-7.5c0-3.22-.66-5.74-2-7.54a7,7,0,0,0-6-2.7,8.25,8.25,0,0,0-3.54.7,6.58,6.58,0,0,0-2.52,2,8.93,8.93,0,0,0-1.49,3.23,17.18,17.18,0,0,0-.5,4.31c0,3.21.67,5.71,2,7.5A7,7,0,0,0,942,292.27Z" transform="translate(-285.63 -256.23)"/><path class="cls-1" d="M983.37,268.53l-11,27.08H968l-11-27.08h3.88a1.47,1.47,0,0,1,1.47,1L969.22,287c.21.66.4,1.3.56,1.93s.31,1.24.46,1.87c.14-.63.29-1.25.45-1.87s.36-1.27.59-1.93l7-17.43a1.52,1.52,0,0,1,.54-.71,1.4,1.4,0,0,1,.88-.28Z" transform="translate(-285.63 -256.23)"/><path class="cls-1" d="M986.47,272.35a15.69,15.69,0,0,1,4.84-3.24,15,15,0,0,1,5.75-1.07,10.28,10.28,0,0,1,4,.75,8.32,8.32,0,0,1,3,2.09,8.7,8.7,0,0,1,1.82,3.24,13.42,13.42,0,0,1,.62,4.17v17.32h-2.11a2.08,2.08,0,0,1-1.07-.22,1.53,1.53,0,0,1-.59-.9l-.54-2.57c-.71.66-1.41,1.25-2.08,1.76A12.62,12.62,0,0,1,998,295a11.66,11.66,0,0,1-2.4.8,12.83,12.83,0,0,1-2.82.28,9.51,9.51,0,0,1-3-.44,6.68,6.68,0,0,1-2.42-1.32,6.35,6.35,0,0,1-1.64-2.24,7.79,7.79,0,0,1-.6-3.19,6,6,0,0,1,.88-3.09,7.71,7.71,0,0,1,2.87-2.63,18.66,18.66,0,0,1,5.16-1.89,39.25,39.25,0,0,1,7.81-.84v-2.11a7.25,7.25,0,0,0-1.37-4.78,4.94,4.94,0,0,0-4-1.61,8.47,8.47,0,0,0-3,.44,10.68,10.68,0,0,0-2.06,1c-.58.36-1.08.69-1.49,1a2.21,2.21,0,0,1-1.25.44,1.39,1.39,0,0,1-.83-.26,2.33,2.33,0,0,1-.58-.63Zm15.38,11.07a40.59,40.59,0,0,0-5.61.52,16.4,16.4,0,0,0-3.77,1.08,5.33,5.33,0,0,0-2.11,1.58,3.4,3.4,0,0,0-.65,2,4.51,4.51,0,0,0,.34,1.84,3.4,3.4,0,0,0,1,1.27,3.81,3.81,0,0,0,1.42.72,6.55,6.55,0,0,0,1.75.23,9.65,9.65,0,0,0,2.3-.25,8.79,8.79,0,0,0,2-.74,10.84,10.84,0,0,0,1.76-1.15,16.49,16.49,0,0,0,1.65-1.52Z" transform="translate(-285.63 -256.23)"/><path class="cls-1" d="M1038.53,295.61h-4.76v-23.1h-13.95v16.26a3.46,3.46,0,0,0,.82,2.54,2.93,2.93,0,0,0,2.14.83,3.9,3.9,0,0,0,1.3-.2,6.06,6.06,0,0,0,1-.44c.27-.16.49-.31.68-.44a.87.87,0,0,1,.5-.21.81.81,0,0,1,.66.46l1.39,2.27a8.82,8.82,0,0,1-3,1.81,10.27,10.27,0,0,1-3.59.65,6.54,6.54,0,0,1-4.93-1.79,7.13,7.13,0,0,1-1.72-5.16V272.51h-3.27a1.07,1.07,0,0,1-.72-.25,1,1,0,0,1-.29-.79v-1.9l4.44-.59,1.09-8.34a1.26,1.26,0,0,1,.36-.66,1.07,1.07,0,0,1,.74-.25h2.41v9.33h18.71Zm1.18-35.77a3,3,0,0,1-.28,1.29,3.56,3.56,0,0,1-1.83,1.78,3.23,3.23,0,0,1-1.31.27,3.12,3.12,0,0,1-1.3-.27,3.68,3.68,0,0,1-1.06-.72,3.55,3.55,0,0,1-.72-1.06,3.11,3.11,0,0,1-.27-1.29,3.33,3.33,0,0,1,.27-1.33,3.57,3.57,0,0,1,.72-1.09,3.38,3.38,0,0,1,1.06-.74,3.12,3.12,0,0,1,1.3-.27,3.23,3.23,0,0,1,1.31.27,3.35,3.35,0,0,1,1.08.74,3.65,3.65,0,0,1,.75,1.09A3.17,3.17,0,0,1,1039.71,259.84Z" transform="translate(-285.63 -256.23)"/><path class="cls-1" d="M1057.76,268.1a13.82,13.82,0,0,1,5.35,1,11.39,11.39,0,0,1,4.06,2.81,12.35,12.35,0,0,1,2.58,4.39,18.95,18.95,0,0,1,0,11.54,12.44,12.44,0,0,1-2.58,4.39,11.34,11.34,0,0,1-4.06,2.79,14,14,0,0,1-5.35,1,14.18,14.18,0,0,1-5.39-1,11.41,11.41,0,0,1-4.08-2.79,12.44,12.44,0,0,1-2.58-4.39,19.15,19.15,0,0,1,0-11.54,12.35,12.35,0,0,1,2.58-4.39,11.46,11.46,0,0,1,4.08-2.81A14,14,0,0,1,1057.76,268.1Zm0,24.17a6.94,6.94,0,0,0,6-2.69q2-2.68,2-7.5c0-3.22-.66-5.74-2-7.54a7,7,0,0,0-6-2.7,8.25,8.25,0,0,0-3.54.7,6.58,6.58,0,0,0-2.52,2,8.76,8.76,0,0,0-1.49,3.23,17.18,17.18,0,0,0-.5,4.31q0,4.82,2,7.5A7,7,0,0,0,1057.76,292.27Z" transform="translate(-285.63 -256.23)"/><path class="cls-1" d="M1081.16,272.46a15,15,0,0,1,1.87-1.79,11.88,11.88,0,0,1,2.1-1.38,10.53,10.53,0,0,1,2.35-.88,11,11,0,0,1,2.69-.31,9.74,9.74,0,0,1,3.91.73,7.56,7.56,0,0,1,2.84,2.09,9.1,9.1,0,0,1,1.72,3.25,13.84,13.84,0,0,1,.59,4.2v17.24h-4.78V278.37a7.3,7.3,0,0,0-1.41-4.78,5.21,5.21,0,0,0-4.26-1.69,8,8,0,0,0-4,1,13,13,0,0,0-3.38,2.76v19.94h-4.79V268.53h2.87a1.17,1.17,0,0,1,1.25,1Z" transform="translate(-285.63 -256.23)"/><path class="cls-1" d="M1125.12,256.23v39.38h-4.76V256.23Z" transform="translate(-285.63 -256.23)"/><path class="cls-1" d="M1132.12,272.35a15.69,15.69,0,0,1,4.84-3.24,15,15,0,0,1,5.75-1.07,10.25,10.25,0,0,1,4,.75,8.28,8.28,0,0,1,3,2.09,9,9,0,0,1,1.82,3.24,13.42,13.42,0,0,1,.61,4.17v17.32H1150a2.08,2.08,0,0,1-1.07-.22,1.53,1.53,0,0,1-.59-.9l-.53-2.57c-.72.66-1.41,1.25-2.09,1.76a12.62,12.62,0,0,1-2.14,1.28,11.78,11.78,0,0,1-2.39.8,13,13,0,0,1-2.82.28,9.52,9.52,0,0,1-3-.44,6.68,6.68,0,0,1-2.42-1.32,6.21,6.21,0,0,1-1.63-2.24,7.79,7.79,0,0,1-.6-3.19,6,6,0,0,1,.88-3.09,7.67,7.67,0,0,1,2.86-2.63,18.66,18.66,0,0,1,5.16-1.89,39.25,39.25,0,0,1,7.81-.84v-2.11a7.25,7.25,0,0,0-1.37-4.78,4.93,4.93,0,0,0-4-1.61,8.47,8.47,0,0,0-3,.44,10.3,10.3,0,0,0-2,1q-.87.54-1.5,1a2.21,2.21,0,0,1-1.25.44,1.34,1.34,0,0,1-.82-.26,2.22,2.22,0,0,1-.59-.63Zm15.38,11.07a40.28,40.28,0,0,0-5.6.52,16.5,16.5,0,0,0-3.78,1.08,5.33,5.33,0,0,0-2.11,1.58,3.46,3.46,0,0,0-.65,2,4.35,4.35,0,0,0,.35,1.84,3.38,3.38,0,0,0,.94,1.27,3.89,3.89,0,0,0,1.42.72,6.61,6.61,0,0,0,1.75.23,9.65,9.65,0,0,0,2.3-.25,8.79,8.79,0,0,0,2-.74,10.84,10.84,0,0,0,1.76-1.15,15.46,15.46,0,0,0,1.65-1.52Z" transform="translate(-285.63 -256.23)"/><path class="cls-1" d="M1164.18,272.43a14,14,0,0,1,3.87-3.16,10.21,10.21,0,0,1,5-1.17,9.84,9.84,0,0,1,4.29.91,8.87,8.87,0,0,1,3.25,2.63,12.32,12.32,0,0,1,2,4.19,19.67,19.67,0,0,1,.71,5.53,20.82,20.82,0,0,1-.8,6,13.76,13.76,0,0,1-2.31,4.61,10.47,10.47,0,0,1-3.68,3,10.88,10.88,0,0,1-4.87,1.06,9.35,9.35,0,0,1-4.5-1,9.91,9.91,0,0,1-3.2-2.85l-.24,2.46a1.14,1.14,0,0,1-1.23,1h-3.07V256.23h4.78Zm0,16.66a7.63,7.63,0,0,0,2.88,2.49,8.11,8.11,0,0,0,3.43.72,6.89,6.89,0,0,0,5.86-2.7c1.35-1.8,2-4.49,2-8.05,0-3.32-.6-5.75-1.8-7.31a6.13,6.13,0,0,0-5.15-2.34,7.47,7.47,0,0,0-4,1.07,11.9,11.9,0,0,0-3.2,3Z" transform="translate(-285.63 -256.23)"/><path class="cls-1" d="M324.7,331.78l-8.37,25.83h-3.59c-.45,0-.75-.28-.92-.86l-5.71-17.52a10.06,10.06,0,0,1-.34-1.19c-.08-.4-.17-.79-.25-1.18-.09.39-.17.78-.26,1.18a9.07,9.07,0,0,1-.33,1.21l-5.81,17.5a1,1,0,0,1-1,.86h-3.42l-8.36-25.83h3.57a1.46,1.46,0,0,1,.9.28,1.34,1.34,0,0,1,.5.67l4.95,16.62c.29,1.23.52,2.38.69,3.47.15-.56.31-1.13.47-1.71s.33-1.16.52-1.76l5.46-16.73a1.32,1.32,0,0,1,.44-.63,1.24,1.24,0,0,1,.78-.26h2a1.34,1.34,0,0,1,.84.26,1.3,1.3,0,0,1,.46.63l5.33,16.73c.19.6.36,1.18.51,1.76s.3,1.15.43,1.71c.09-.56.2-1.13.32-1.7s.27-1.16.42-1.77L320,332.73a1.38,1.38,0,0,1,1.33-1Z" transform="translate(-285.63 -256.23)"/><path class="cls-1" d="M339.67,331.38a13.12,13.12,0,0,1,5.09.94,10.84,10.84,0,0,1,3.88,2.68,11.7,11.7,0,0,1,2.46,4.19,18,18,0,0,1,0,11,11.79,11.79,0,0,1-2.46,4.19,10.79,10.79,0,0,1-3.88,2.66,13.3,13.3,0,0,1-5.09.93,13.49,13.49,0,0,1-5.14-.93,10.75,10.75,0,0,1-3.89-2.66,11.79,11.79,0,0,1-2.46-4.19,18,18,0,0,1,0-11,11.7,11.7,0,0,1,2.46-4.19,10.79,10.79,0,0,1,3.89-2.68A13.3,13.3,0,0,1,339.67,331.38Zm0,23.05a6.64,6.64,0,0,0,5.71-2.57,11.9,11.9,0,0,0,1.88-7.15,12,12,0,0,0-1.88-7.19,6.62,6.62,0,0,0-5.71-2.58,8,8,0,0,0-3.38.67,6.31,6.31,0,0,0-2.4,1.91,8.55,8.55,0,0,0-1.43,3.07,16.73,16.73,0,0,0-.47,4.12c0,3.06.63,5.45,1.9,7.15A6.73,6.73,0,0,0,339.67,354.43Z" transform="translate(-285.63 -256.23)"/><path class="cls-1" d="M362,337a11.62,11.62,0,0,1,3-4.14,6.54,6.54,0,0,1,4.36-1.5,6.69,6.69,0,0,1,1.57.18,4.36,4.36,0,0,1,1.34.56l-.33,3.4a.74.74,0,0,1-.77.63,5.21,5.21,0,0,1-1-.15,7.37,7.37,0,0,0-1.56-.15,6.39,6.39,0,0,0-2.18.35,5.06,5.06,0,0,0-1.71,1.06,7.59,7.59,0,0,0-1.35,1.74,14.28,14.28,0,0,0-1.08,2.35v16.32h-4.57V331.78h2.6a1.45,1.45,0,0,1,1,.28,1.72,1.72,0,0,1,.39,1Z" transform="translate(-285.63 -256.23)"/><path class="cls-1" d="M380.82,320.05v22.11H382a2.38,2.38,0,0,0,.86-.14,2,2,0,0,0,.72-.57l8.16-8.75a2.93,2.93,0,0,1,.76-.67,1.9,1.9,0,0,1,1.05-.25h4.11l-9.51,10.13a5.8,5.8,0,0,1-1.48,1.35,4.66,4.66,0,0,1,.83.7,6.68,6.68,0,0,1,.7.9l10.1,12.75h-4.06a2.35,2.35,0,0,1-1-.19,1.62,1.62,0,0,1-.73-.7L384,346.14a2.07,2.07,0,0,0-.75-.7,3,3,0,0,0-1.14-.17h-1.3v12.34h-4.56V320.05Z" transform="translate(-285.63 -256.23)"/><path class="cls-1" d="M407.93,323.67a2.85,2.85,0,0,1-.27,1.24,3.81,3.81,0,0,1-.71,1,3.27,3.27,0,0,1-1.05.7,3.19,3.19,0,0,1-1.26.26,3,3,0,0,1-1.24-.26,3.21,3.21,0,0,1-1-.7,3.5,3.5,0,0,1-.68-1,3,3,0,0,1-.26-1.24,3.19,3.19,0,0,1,.26-1.26,3.22,3.22,0,0,1,1.69-1.74,3,3,0,0,1,1.24-.26,3.19,3.19,0,0,1,1.26.26,3.27,3.27,0,0,1,1.05.7,3.49,3.49,0,0,1,.71,1A3,3,0,0,1,407.93,323.67Zm-1,8.11v25.83h-4.54V331.78Z" transform="translate(-285.63 -256.23)"/><path class="cls-1" d="M418.69,335.53a15.06,15.06,0,0,1,1.78-1.71,12.28,12.28,0,0,1,2-1.31,10.21,10.21,0,0,1,4.81-1.13,9.31,9.31,0,0,1,3.74.7,7.1,7.1,0,0,1,2.7,2,8.7,8.7,0,0,1,1.64,3.09,13.36,13.36,0,0,1,.56,4v16.44h-4.56V341.17a6.94,6.94,0,0,0-1.34-4.55A5,5,0,0,0,426,335a7.62,7.62,0,0,0-3.77,1,12.29,12.29,0,0,0-3.22,2.62v19H414.4V331.78h2.73a1.12,1.12,0,0,1,1.2,1Z" transform="translate(-285.63 -256.23)"/><path class="cls-1" d="M464.66,332.8v1.69c0,.56-.35.91-1.07,1.07l-2.93.38a8,8,0,0,1,.87,3.72,7.87,7.87,0,0,1-.73,3.43,7.77,7.77,0,0,1-2,2.64,8.88,8.88,0,0,1-3.06,1.68,12.09,12.09,0,0,1-3.88.59,13,13,0,0,1-3.41-.43,4.55,4.55,0,0,0-1.25,1.08,1.91,1.91,0,0,0-.44,1.16,1.54,1.54,0,0,0,.75,1.39,5.41,5.41,0,0,0,2,.68,21.89,21.89,0,0,0,2.79.25c1.05,0,2.12.09,3.22.17a30.59,30.59,0,0,1,3.21.39,10,10,0,0,1,2.79.92,5.26,5.26,0,0,1,2,1.76,5.15,5.15,0,0,1,.75,2.91,6.79,6.79,0,0,1-.83,3.21,8.74,8.74,0,0,1-2.38,2.77,12.63,12.63,0,0,1-3.81,1.94,16.78,16.78,0,0,1-5.09.72,19.62,19.62,0,0,1-4.95-.56,11.56,11.56,0,0,1-3.52-1.5,6.67,6.67,0,0,1-2.1-2.18,5.17,5.17,0,0,1-.7-2.59,4.68,4.68,0,0,1,1.19-3.24,8.41,8.41,0,0,1,3.29-2.12,4.72,4.72,0,0,1-1.82-1.36,3.63,3.63,0,0,1-.67-2.31,3.5,3.5,0,0,1,.2-1.16,4.91,4.91,0,0,1,.62-1.2,6.46,6.46,0,0,1,1-1.13,7,7,0,0,1,1.42-.95,8,8,0,0,1-3-2.84,8.45,8.45,0,0,1-.34-7.55,7.53,7.53,0,0,1,2-2.62,9.15,9.15,0,0,1,3.1-1.67,13.48,13.48,0,0,1,7.08-.22,10.24,10.24,0,0,1,2.65,1.08ZM460.05,359a2.17,2.17,0,0,0-.54-1.53,3.55,3.55,0,0,0-1.44-.92,9.05,9.05,0,0,0-2.1-.47c-.8-.1-1.65-.17-2.54-.22l-2.72-.15c-.91-.05-1.8-.14-2.65-.26a7.07,7.07,0,0,0-2.33,1.67,3.44,3.44,0,0,0-.91,2.36,3.09,3.09,0,0,0,.45,1.62,3.79,3.79,0,0,0,1.36,1.3,8,8,0,0,0,2.31.87,16.76,16.76,0,0,0,6.57,0,8.42,8.42,0,0,0,2.46-.95,4.59,4.59,0,0,0,1.54-1.45A3.37,3.37,0,0,0,460.05,359Zm-8.19-14a7.21,7.21,0,0,0,2.43-.38,5,5,0,0,0,1.75-1.07,4.39,4.39,0,0,0,1.08-1.65,6.09,6.09,0,0,0,.35-2.1A5,5,0,0,0,456,336a6.9,6.9,0,0,0-8.36,0,5,5,0,0,0-1.44,3.77,5.65,5.65,0,0,0,.37,2.1,4.39,4.39,0,0,0,1.08,1.65,5,5,0,0,0,1.76,1.07A7.15,7.15,0,0,0,451.86,345Z" transform="translate(-285.63 -256.23)"/><path class="cls-1" d="M481.77,335.43a14.74,14.74,0,0,1,4.62-3.09,14.26,14.26,0,0,1,5.48-1,9.68,9.68,0,0,1,3.85.72,7.8,7.8,0,0,1,2.83,2,8.38,8.38,0,0,1,1.74,3.08,12.93,12.93,0,0,1,.58,4v16.52h-2a2,2,0,0,1-1-.21,1.46,1.46,0,0,1-.56-.86l-.51-2.44c-.68.63-1.35,1.18-2,1.67a11.83,11.83,0,0,1-2,1.22,11.54,11.54,0,0,1-2.28.77,13.13,13.13,0,0,1-2.69.26,9.27,9.27,0,0,1-2.83-.42,6.46,6.46,0,0,1-2.31-1.26,5.84,5.84,0,0,1-1.56-2.13,7.48,7.48,0,0,1-.57-3,5.66,5.66,0,0,1,.84-2.94,7.29,7.29,0,0,1,2.73-2.51,18.06,18.06,0,0,1,4.92-1.8,37.38,37.38,0,0,1,7.45-.81v-2a7,7,0,0,0-1.3-4.55,4.7,4.7,0,0,0-3.8-1.54,8.14,8.14,0,0,0-2.82.42,10.64,10.64,0,0,0-2,.94c-.55.35-1,.66-1.42.94a2.09,2.09,0,0,1-1.19.43,1.31,1.31,0,0,1-.79-.25,2.14,2.14,0,0,1-.56-.6ZM496.44,346a38.77,38.77,0,0,0-5.35.49,15.1,15.1,0,0,0-3.59,1,4.92,4.92,0,0,0-2,1.5,3.3,3.3,0,0,0-.62,1.94,4.29,4.29,0,0,0,.33,1.76,3.18,3.18,0,0,0,.91,1.21,3.75,3.75,0,0,0,1.35.69,6.36,6.36,0,0,0,1.67.22,9.28,9.28,0,0,0,2.19-.25,7.92,7.92,0,0,0,1.87-.7,10.56,10.56,0,0,0,1.69-1.09,15.11,15.11,0,0,0,1.57-1.46Z" transform="translate(-285.63 -256.23)"/><path class="cls-1" d="M515.38,358a6.2,6.2,0,0,1-4.7-1.71,6.79,6.79,0,0,1-1.65-4.92V335.58h-3.11a1,1,0,0,1-.69-.24,1,1,0,0,1-.28-.75v-1.81l4.24-.54,1-8a1.1,1.1,0,0,1,.35-.62,1,1,0,0,1,.7-.25h2.29v8.9H521v3.29h-7.47v15.51a3.28,3.28,0,0,0,.79,2.42,2.76,2.76,0,0,0,2,.79,3.55,3.55,0,0,0,1.24-.19,5.43,5.43,0,0,0,.9-.42c.26-.16.48-.3.65-.42a.84.84,0,0,1,.48-.19.77.77,0,0,1,.63.43l1.33,2.17a8.56,8.56,0,0,1-2.83,1.72A9.76,9.76,0,0,1,515.38,358Z" transform="translate(-285.63 -256.23)"/><path class="cls-1" d="M546.72,358a6.2,6.2,0,0,1-4.7-1.71,6.79,6.79,0,0,1-1.65-4.92V335.58h-3.11a1,1,0,0,1-.69-.24.92.92,0,0,1-.28-.75v-1.81l4.23-.54,1.05-8a1.1,1.1,0,0,1,.35-.62,1,1,0,0,1,.7-.25h2.29v8.9h7.47v3.29h-7.47v15.51a3.28,3.28,0,0,0,.79,2.42,2.76,2.76,0,0,0,2,.79,3.55,3.55,0,0,0,1.24-.19,5.43,5.43,0,0,0,.9-.42c.26-.16.48-.3.65-.42a.84.84,0,0,1,.47-.19.77.77,0,0,1,.64.43l1.33,2.17a8.56,8.56,0,0,1-2.83,1.72A9.8,9.8,0,0,1,546.72,358Z" transform="translate(-285.63 -256.23)"/><path class="cls-1" d="M561.64,335.23a13.61,13.61,0,0,1,3.67-2.81,9.88,9.88,0,0,1,4.64-1,9.31,9.31,0,0,1,3.74.7,7.1,7.1,0,0,1,2.7,2,8.88,8.88,0,0,1,1.65,3.09,13.68,13.68,0,0,1,.56,4v16.44H574V341.17a6.94,6.94,0,0,0-1.34-4.55,5,5,0,0,0-4.06-1.62,7.62,7.62,0,0,0-3.77,1,12.29,12.29,0,0,0-3.22,2.62v19h-4.57V320.05h4.57Z" transform="translate(-285.63 -256.23)"/><path class="cls-1" d="M606.49,354a8.61,8.61,0,0,1-2,1.78A12.44,12.44,0,0,1,602,357a15.48,15.48,0,0,1-2.77.73,17.07,17.07,0,0,1-2.83.24,13.14,13.14,0,0,1-4.93-.9,10.88,10.88,0,0,1-3.91-2.66,12.15,12.15,0,0,1-2.56-4.32,17.59,17.59,0,0,1-.92-5.91,15.07,15.07,0,0,1,.83-5.05,11.81,11.81,0,0,1,2.39-4.07,10.78,10.78,0,0,1,3.8-2.7,12.32,12.32,0,0,1,5-1,11.61,11.61,0,0,1,4.3.77,9.7,9.7,0,0,1,3.42,2.25,10.12,10.12,0,0,1,2.25,3.62,13.63,13.63,0,0,1,.82,4.91,3,3,0,0,1-.23,1.42,1,1,0,0,1-.87.36H588.54a15.08,15.08,0,0,0,.68,4.26,8.37,8.37,0,0,0,1.67,3,6.66,6.66,0,0,0,2.55,1.81,8.71,8.71,0,0,0,3.31.6,9.9,9.9,0,0,0,3-.39,14.69,14.69,0,0,0,2.13-.86,16.42,16.42,0,0,0,1.49-.85,1.93,1.93,0,0,1,1-.4,1,1,0,0,1,.87.44Zm-3.67-12.11a9.13,9.13,0,0,0-.44-2.89,6.45,6.45,0,0,0-1.31-2.27,5.82,5.82,0,0,0-2.07-1.48,7.89,7.89,0,0,0-8,1.38,8.94,8.94,0,0,0-2.36,5.26Z" transform="translate(-285.63 -256.23)"/><path class="cls-1" d="M631.28,323.67a2.85,2.85,0,0,1-.27,1.24,3.81,3.81,0,0,1-.71,1,3.27,3.27,0,0,1-1,.7,3.19,3.19,0,0,1-1.26.26,3.06,3.06,0,0,1-1.24-.26,3.17,3.17,0,0,1-1-.7,3.53,3.53,0,0,1-.69-1,3,3,0,0,1-.26-1.24,3.19,3.19,0,0,1,.26-1.26,3.26,3.26,0,0,1,.69-1,3.17,3.17,0,0,1,1-.7,3.06,3.06,0,0,1,1.24-.26,3.19,3.19,0,0,1,1.26.26,3.27,3.27,0,0,1,1,.7,3.49,3.49,0,0,1,.71,1A3,3,0,0,1,631.28,323.67Zm-1,8.11v25.83h-4.54V331.78Z" transform="translate(-285.63 -256.23)"/><path class="cls-1" d="M642,335.53a15.87,15.87,0,0,1,1.78-1.71,12,12,0,0,1,2-1.31,10,10,0,0,1,2.24-.84,10.4,10.4,0,0,1,2.56-.29,9.31,9.31,0,0,1,3.74.7,7.1,7.1,0,0,1,2.7,2,8.88,8.88,0,0,1,1.65,3.09,13.68,13.68,0,0,1,.56,4v16.44h-4.57V341.17a6.88,6.88,0,0,0-1.34-4.55,5,5,0,0,0-4.06-1.62,7.55,7.55,0,0,0-3.76,1,12.33,12.33,0,0,0-3.23,2.62v19h-4.56V331.78h2.72a1.12,1.12,0,0,1,1.2,1Z" transform="translate(-285.63 -256.23)"/><path class="cls-1" d="M673.79,358a6.24,6.24,0,0,1-4.71-1.71,6.83,6.83,0,0,1-1.64-4.92V335.58h-3.11a1,1,0,0,1-.69-.24.92.92,0,0,1-.28-.75v-1.81l4.23-.54,1-8a1.09,1.09,0,0,1,.34-.62,1,1,0,0,1,.7-.25H672v8.9h7.47v3.29H672v15.51a3.28,3.28,0,0,0,.79,2.42,2.73,2.73,0,0,0,2,.79,3.49,3.49,0,0,0,1.23-.19,6,6,0,0,0,.91-.42l.65-.42a.84.84,0,0,1,.47-.19.78.78,0,0,1,.64.43l1.33,2.17a8.66,8.66,0,0,1-2.83,1.72A9.8,9.8,0,0,1,673.79,358Z" transform="translate(-285.63 -256.23)"/><path class="cls-1" d="M705,354a8.61,8.61,0,0,1-2,1.78,12.44,12.44,0,0,1-2.51,1.23,15.26,15.26,0,0,1-2.77.73,17,17,0,0,1-2.83.24,13.18,13.18,0,0,1-4.93-.9,10.75,10.75,0,0,1-3.9-2.66,12,12,0,0,1-2.57-4.32,17.59,17.59,0,0,1-.92-5.91,15.07,15.07,0,0,1,.83-5.05,12,12,0,0,1,2.39-4.07,10.78,10.78,0,0,1,3.8-2.7,12.37,12.37,0,0,1,5.05-1,11.56,11.56,0,0,1,4.29.77,9.7,9.7,0,0,1,3.42,2.25,10.28,10.28,0,0,1,2.26,3.62,13.85,13.85,0,0,1,.81,4.91,2.83,2.83,0,0,1-.23,1.42.94.94,0,0,1-.86.36H687a15.08,15.08,0,0,0,.68,4.26,8.37,8.37,0,0,0,1.67,3,6.66,6.66,0,0,0,2.55,1.81,8.71,8.71,0,0,0,3.31.6,9.9,9.9,0,0,0,2.95-.39,14.69,14.69,0,0,0,2.13-.86,16.42,16.42,0,0,0,1.49-.85,1.93,1.93,0,0,1,1-.4,1,1,0,0,1,.87.44Zm-3.67-12.11a9.13,9.13,0,0,0-.44-2.89,6.58,6.58,0,0,0-1.3-2.27,5.86,5.86,0,0,0-2.08-1.48,7.89,7.89,0,0,0-8,1.38,8.87,8.87,0,0,0-2.35,5.26Z" transform="translate(-285.63 -256.23)"/><path class="cls-1" d="M715.25,337a11.62,11.62,0,0,1,3-4.14,6.54,6.54,0,0,1,4.36-1.5,6.75,6.75,0,0,1,1.57.18,4.36,4.36,0,0,1,1.34.56l-.33,3.4a.74.74,0,0,1-.77.63,5.39,5.39,0,0,1-1-.15,7.21,7.21,0,0,0-1.55-.15,6.39,6.39,0,0,0-2.18.35,5.06,5.06,0,0,0-1.71,1.06,7.59,7.59,0,0,0-1.35,1.74,14.28,14.28,0,0,0-1.08,2.35v16.32h-4.57V331.78h2.6a1.45,1.45,0,0,1,1,.28,1.66,1.66,0,0,1,.38,1Z" transform="translate(-285.63 -256.23)"/><path class="cls-1" d="M744.4,336a1,1,0,0,1-.95.56,1.73,1.73,0,0,1-.86-.28c-.33-.18-.72-.39-1.19-.62a11.5,11.5,0,0,0-1.67-.64,7.82,7.82,0,0,0-2.29-.29,6.64,6.64,0,0,0-2.07.29,5.16,5.16,0,0,0-1.57.8,3.6,3.6,0,0,0-1,1.19,3.19,3.19,0,0,0-.35,1.47,2.39,2.39,0,0,0,.58,1.65,4.9,4.9,0,0,0,1.51,1.15,13,13,0,0,0,2.15.85c.8.25,1.62.51,2.46.8s1.66.59,2.46.93a8.9,8.9,0,0,1,2.14,1.27,5.94,5.94,0,0,1,1.52,1.88,5.71,5.71,0,0,1,.57,2.66,8.33,8.33,0,0,1-.64,3.3,7.19,7.19,0,0,1-1.88,2.63,9.32,9.32,0,0,1-3.06,1.75,12.73,12.73,0,0,1-4.19.63,12.94,12.94,0,0,1-4.89-.88,12.43,12.43,0,0,1-3.72-2.25l1.07-1.74a1.48,1.48,0,0,1,.48-.51,1.31,1.31,0,0,1,.71-.18,1.69,1.69,0,0,1,1,.36c.34.24.76.5,1.24.79a9.52,9.52,0,0,0,1.77.79,8.11,8.11,0,0,0,2.6.36,7,7,0,0,0,2.32-.35,4.52,4.52,0,0,0,1.66-.93,3.66,3.66,0,0,0,1-1.35,4.05,4.05,0,0,0,.32-1.63,2.72,2.72,0,0,0-.57-1.77,4.76,4.76,0,0,0-1.52-1.2,13,13,0,0,0-2.15-.87c-.81-.24-1.64-.5-2.48-.78s-1.66-.58-2.47-.93a8.14,8.14,0,0,1-2.15-1.31,6,6,0,0,1-1.52-1.95,6.19,6.19,0,0,1-.58-2.82,7,7,0,0,1,2.4-5.24,8.75,8.75,0,0,1,2.88-1.64,11.49,11.49,0,0,1,3.9-.61,12.26,12.26,0,0,1,4.58.8,10.89,10.89,0,0,1,3.51,2.2Z" transform="translate(-285.63 -256.23)"/><path class="cls-1" d="M772.4,354a8.87,8.87,0,0,1-2,1.78,12.44,12.44,0,0,1-2.51,1.23,15,15,0,0,1-2.77.73,17,17,0,0,1-2.83.24,13.18,13.18,0,0,1-4.93-.9,10.75,10.75,0,0,1-3.9-2.66,12.17,12.17,0,0,1-2.57-4.32,17.6,17.6,0,0,1-.91-5.91,14.82,14.82,0,0,1,.83-5.05,11.78,11.78,0,0,1,2.38-4.07,10.87,10.87,0,0,1,3.8-2.7,12.37,12.37,0,0,1,5-1,11.56,11.56,0,0,1,4.29.77,9.7,9.7,0,0,1,3.42,2.25A10.28,10.28,0,0,1,772,338a13.85,13.85,0,0,1,.81,4.91,3,3,0,0,1-.22,1.42,1,1,0,0,1-.87.36H754.44a15.45,15.45,0,0,0,.68,4.26,8.52,8.52,0,0,0,1.67,3,6.66,6.66,0,0,0,2.55,1.81,8.77,8.77,0,0,0,3.32.6,9.83,9.83,0,0,0,2.94-.39,14.69,14.69,0,0,0,2.13-.86,15.14,15.14,0,0,0,1.49-.85,1.93,1.93,0,0,1,1-.4,1,1,0,0,1,.87.44Zm-3.68-12.11a8.85,8.85,0,0,0-.44-2.89,6.43,6.43,0,0,0-1.3-2.27,5.77,5.77,0,0,0-2.08-1.48,7.87,7.87,0,0,0-7.94,1.38,8.82,8.82,0,0,0-2.36,5.26Z" transform="translate(-285.63 -256.23)"/><path class="cls-1" d="M796.34,336.37a2.21,2.21,0,0,1-.41.44.91.91,0,0,1-.56.15,1.56,1.56,0,0,1-.84-.32c-.31-.21-.68-.45-1.13-.7a9.75,9.75,0,0,0-1.66-.7,8.91,8.91,0,0,0-5.78.36,6.41,6.41,0,0,0-2.43,1.95,8.74,8.74,0,0,0-1.48,3.08,15.4,15.4,0,0,0-.5,4.06,14.74,14.74,0,0,0,.54,4.17,8.94,8.94,0,0,0,1.51,3.06A6.62,6.62,0,0,0,786,353.8a7.22,7.22,0,0,0,3.13.65,8.14,8.14,0,0,0,2.73-.39,8.57,8.57,0,0,0,1.77-.88c.47-.33.86-.62,1.17-.88a1.46,1.46,0,0,1,.93-.4,1,1,0,0,1,.87.44l1.27,1.65a8.75,8.75,0,0,1-1.91,1.79,12.16,12.16,0,0,1-2.31,1.24,12.31,12.31,0,0,1-2.58.72,15.74,15.74,0,0,1-2.76.23,11.4,11.4,0,0,1-4.5-.89,10.39,10.39,0,0,1-3.61-2.59,12,12,0,0,1-2.39-4.17,16.94,16.94,0,0,1-.87-5.63,17.16,17.16,0,0,1,.8-5.33,12.13,12.13,0,0,1,2.35-4.22,10.62,10.62,0,0,1,3.8-2.77,12.78,12.78,0,0,1,5.19-1,12.13,12.13,0,0,1,4.8.88,11.37,11.37,0,0,1,3.69,2.48Z" transform="translate(-285.63 -256.23)"/><path class="cls-1" d="M826.69,357.61h-4.54v-22H808.84v15.51a3.28,3.28,0,0,0,.79,2.42,2.73,2.73,0,0,0,2,.79,3.53,3.53,0,0,0,1.23-.19,6,6,0,0,0,.91-.42l.65-.42a.82.82,0,0,1,.47-.19.78.78,0,0,1,.64.43l1.32,2.17a8.45,8.45,0,0,1-2.83,1.72,9.71,9.71,0,0,1-3.41.62,6.24,6.24,0,0,1-4.71-1.71,6.79,6.79,0,0,1-1.64-4.92V335.58h-3.11a1,1,0,0,1-.69-.24.92.92,0,0,1-.28-.75v-1.81l4.23-.56,1-8a1.09,1.09,0,0,1,.34-.62,1,1,0,0,1,.7-.25h2.3v8.9h17.85Zm1.12-34.11a2.84,2.84,0,0,1-.27,1.23,3.61,3.61,0,0,1-.71,1,3.5,3.5,0,0,1-1,.69,3.07,3.07,0,0,1-1.25.25,3,3,0,0,1-1.23-.25,3.24,3.24,0,0,1-1-.69,3.36,3.36,0,0,1-.69-1,3,3,0,0,1-.25-1.23,3.2,3.2,0,0,1,.25-1.27,3.37,3.37,0,0,1,.69-1,3.1,3.1,0,0,1,1-.7,3,3,0,0,1,1.23-.26,3.07,3.07,0,0,1,1.25.26,3.34,3.34,0,0,1,1,.7,3.62,3.62,0,0,1,.71,1A3,3,0,0,1,827.81,323.5Z" transform="translate(-285.63 -256.23)"/><path class="cls-1" d="M845,331.38a13.13,13.13,0,0,1,5.1.94A11,11,0,0,1,854,335a11.7,11.7,0,0,1,2.46,4.19,18.22,18.22,0,0,1,0,11,11.79,11.79,0,0,1-2.46,4.19,11,11,0,0,1-3.88,2.66,13.32,13.32,0,0,1-5.1.93,13.53,13.53,0,0,1-5.14-.93,10.83,10.83,0,0,1-3.89-2.66,11.79,11.79,0,0,1-2.46-4.19,18.22,18.22,0,0,1,0-11A11.7,11.7,0,0,1,836,335a10.88,10.88,0,0,1,3.89-2.68A13.34,13.34,0,0,1,845,331.38Zm0,23.05a6.63,6.63,0,0,0,5.71-2.57,11.83,11.83,0,0,0,1.89-7.15,12,12,0,0,0-1.89-7.19,6.61,6.61,0,0,0-5.71-2.58,8.06,8.06,0,0,0-3.38.67,6.31,6.31,0,0,0-2.4,1.91,8.54,8.54,0,0,0-1.42,3.07,16.24,16.24,0,0,0-.48,4.12,11.82,11.82,0,0,0,1.9,7.15A6.74,6.74,0,0,0,845,354.43Z" transform="translate(-285.63 -256.23)"/><path class="cls-1" d="M867.33,335.53a15.14,15.14,0,0,1,1.79-1.71,11.87,11.87,0,0,1,2-1.31,10,10,0,0,1,2.24-.84,10.46,10.46,0,0,1,2.56-.29,9.28,9.28,0,0,1,3.74.7,7.1,7.1,0,0,1,2.7,2,8.72,8.72,0,0,1,1.65,3.09,13.68,13.68,0,0,1,.56,4v16.44H880V341.17a6.93,6.93,0,0,0-1.33-4.55A5,5,0,0,0,874.6,335a7.58,7.58,0,0,0-3.76,1,12.33,12.33,0,0,0-3.23,2.62v19h-4.56V331.78h2.73a1.12,1.12,0,0,1,1.19,1Z" transform="translate(-285.63 -256.23)"/><path class="cls-1" d="M915.45,331.38a13.13,13.13,0,0,1,5.1.94,11,11,0,0,1,3.88,2.68,11.7,11.7,0,0,1,2.46,4.19,18.22,18.22,0,0,1,0,11,11.79,11.79,0,0,1-2.46,4.19,11,11,0,0,1-3.88,2.66,13.32,13.32,0,0,1-5.1.93,13.53,13.53,0,0,1-5.14-.93,10.83,10.83,0,0,1-3.89-2.66,11.79,11.79,0,0,1-2.46-4.19,18.22,18.22,0,0,1,0-11,11.7,11.7,0,0,1,2.46-4.19,10.88,10.88,0,0,1,3.89-2.68A13.34,13.34,0,0,1,915.45,331.38Zm0,23.05a6.63,6.63,0,0,0,5.71-2.57,11.83,11.83,0,0,0,1.89-7.15,12,12,0,0,0-1.89-7.19,6.61,6.61,0,0,0-5.71-2.58,8.06,8.06,0,0,0-3.38.67,6.31,6.31,0,0,0-2.4,1.91,8.54,8.54,0,0,0-1.42,3.07,16.24,16.24,0,0,0-.48,4.12,11.82,11.82,0,0,0,1.9,7.15A6.74,6.74,0,0,0,915.45,354.43Z" transform="translate(-285.63 -256.23)"/><path class="cls-1" d="M934.6,357.61V335.66l-2.85-.33a2.24,2.24,0,0,1-.88-.4.93.93,0,0,1-.35-.78v-1.86h4.08v-2.5a11.43,11.43,0,0,1,.63-3.94A8,8,0,0,1,937,323a7.55,7.55,0,0,1,2.79-1.8,10.35,10.35,0,0,1,3.67-.61,9.57,9.57,0,0,1,3.19.51l-.1,2.27a.65.65,0,0,1-.68.66c-.41,0-1,0-1.67,0a6.81,6.81,0,0,0-2.13.31,4,4,0,0,0-1.64,1,4.52,4.52,0,0,0-1.06,1.81,9.22,9.22,0,0,0-.37,2.78v2.37h7.45v3.29h-7.29v22Z" transform="translate(-285.63 -256.23)"/><path class="cls-1" d="M319.85,419.61H316a1.68,1.68,0,0,1-1.08-.33,2.08,2.08,0,0,1-.61-.84l-3.41-8.82h-16.4l-3.42,8.82a1.83,1.83,0,0,1-.58.82,1.63,1.63,0,0,1-1.08.35h-3.82l14.61-36.54h5Zm-10.3-13.56-5.74-14.87c-.17-.44-.35-.95-.53-1.54s-.37-1.21-.54-1.87a27.67,27.67,0,0,1-1.1,3.44l-5.73,14.84Z" transform="translate(-285.63 -256.23)"/><path class="cls-1" d="M329.62,419.61h-4.95V383.07h4.95Z" transform="translate(-285.63 -256.23)"/><path class="cls-1" d="M374.37,404.21H364v11h-3.69v-11H349.91v-3.44h10.36V389.88H364v10.89h10.41Z" transform="translate(-285.63 -256.23)"/><path class="cls-1" d="M422.64,419.61h-3.83a1.67,1.67,0,0,1-1.07-.33,2.08,2.08,0,0,1-.61-.84l-3.42-8.82H397.32l-3.42,8.82a1.78,1.78,0,0,1-.59.82,1.59,1.59,0,0,1-1.07.35h-3.82L403,383.07h5Zm-10.3-13.56-5.74-14.87c-.17-.44-.35-.95-.54-1.54s-.36-1.21-.53-1.87a27.67,27.67,0,0,1-1.1,3.44l-5.73,14.84Z" transform="translate(-285.63 -256.23)"/><path class="cls-1" d="M454.46,419.61h-4.38a2.15,2.15,0,0,1-2-1l-9.49-13.06a2.83,2.83,0,0,0-.93-.88,3.36,3.36,0,0,0-1.54-.26h-3.75v15.24h-4.92V383.07h10.33a22.86,22.86,0,0,1,6,.7,11.6,11.6,0,0,1,4.17,2,8.14,8.14,0,0,1,2.43,3.2,10.66,10.66,0,0,1,.79,4.2,10.46,10.46,0,0,1-.61,3.62,9.65,9.65,0,0,1-1.77,3,10.66,10.66,0,0,1-2.83,2.28,14,14,0,0,1-3.79,1.43,4.89,4.89,0,0,1,1.63,1.55Zm-16.88-18.84a12.49,12.49,0,0,0,3.79-.52,7.78,7.78,0,0,0,2.75-1.48,6.13,6.13,0,0,0,1.67-2.28,7.41,7.41,0,0,0,.56-2.94,5.84,5.84,0,0,0-2.14-4.92q-2.15-1.65-6.42-1.65h-5.41v13.79Z" transform="translate(-285.63 -256.23)"/><path class="cls-1" d="M470.73,397.43a14.74,14.74,0,0,1,4.62-3.09,14.23,14.23,0,0,1,5.48-1,9.72,9.72,0,0,1,3.85.72,7.8,7.8,0,0,1,2.83,2,8.36,8.36,0,0,1,1.73,3.08,12.93,12.93,0,0,1,.59,4v16.52h-2a2,2,0,0,1-1-.21,1.46,1.46,0,0,1-.56-.86l-.51-2.44c-.69.62-1.35,1.18-2,1.67a11.83,11.83,0,0,1-2,1.22,10.8,10.8,0,0,1-2.29.76,12.31,12.31,0,0,1-2.69.27,9.36,9.36,0,0,1-2.83-.42,6.5,6.5,0,0,1-2.3-1.26,5.84,5.84,0,0,1-1.56-2.13,7.48,7.48,0,0,1-.57-3,5.66,5.66,0,0,1,.84-2.94,7.29,7.29,0,0,1,2.73-2.51,17.49,17.49,0,0,1,4.92-1.8,37.36,37.36,0,0,1,7.44-.81v-2a6.88,6.88,0,0,0-1.3-4.55,4.67,4.67,0,0,0-3.8-1.54,8.12,8.12,0,0,0-2.81.42,10.34,10.34,0,0,0-2,.94c-.55.35-1,.66-1.43.94a2,2,0,0,1-1.18.42,1.3,1.3,0,0,1-.79-.24,2.14,2.14,0,0,1-.56-.6ZM485.39,408a37.25,37.25,0,0,0-5.34.49,15.1,15.1,0,0,0-3.59,1,4.92,4.92,0,0,0-2,1.5,3.23,3.23,0,0,0-.62,1.94,4.29,4.29,0,0,0,.33,1.76,3.26,3.26,0,0,0,.9,1.21,3.88,3.88,0,0,0,1.36.69,6.31,6.31,0,0,0,1.67.21,9.36,9.36,0,0,0,2.19-.24,7.92,7.92,0,0,0,1.87-.7,10.62,10.62,0,0,0,1.69-1.1,13.9,13.9,0,0,0,1.56-1.45Z" transform="translate(-285.63 -256.23)"/><path class="cls-1" d="M501,397.53a15.06,15.06,0,0,1,1.78-1.71,12.28,12.28,0,0,1,2-1.31,10.21,10.21,0,0,1,4.81-1.13,9.26,9.26,0,0,1,3.73.7,7.21,7.21,0,0,1,2.71,2,8.7,8.7,0,0,1,1.64,3.09,13.36,13.36,0,0,1,.56,4v16.44H513.7V403.17a6.94,6.94,0,0,0-1.34-4.55,5,5,0,0,0-4.07-1.62,7.7,7.7,0,0,0-3.76,1,12.54,12.54,0,0,0-3.22,2.63v19h-4.57V393.78h2.73a1.13,1.13,0,0,1,1.2,1Z" transform="translate(-285.63 -256.23)"/><path class="cls-1" d="M546.57,382.05v37.56h-2.7a1.16,1.16,0,0,1-1.23-.94l-.41-3.14a14,14,0,0,1-3.77,3.22,9.66,9.66,0,0,1-4.9,1.22,9.33,9.33,0,0,1-4-.85,8.44,8.44,0,0,1-3.08-2.51,11.88,11.88,0,0,1-2-4.14,21.14,21.14,0,0,1-.69-5.68,17.82,17.82,0,0,1,.76-5.32,13.16,13.16,0,0,1,2.19-4.27,10.17,10.17,0,0,1,8.19-3.88,9.38,9.38,0,0,1,4.07.81,9.87,9.87,0,0,1,3,2.23V382.05ZM542,399.93a7.47,7.47,0,0,0-2.75-2.39,7.94,7.94,0,0,0-3.32-.67,6.51,6.51,0,0,0-5.53,2.57c-1.3,1.72-1.94,4.17-1.94,7.35a18.64,18.64,0,0,0,.43,4.32,8.41,8.41,0,0,0,1.28,3,5,5,0,0,0,2.06,1.69,6.83,6.83,0,0,0,2.78.54,7.39,7.39,0,0,0,3.92-1A11.33,11.33,0,0,0,542,412.4Z" transform="translate(-285.63 -256.23)"/><path class="cls-1" d="M593.54,412.07a.93.93,0,0,1,.71.33l2,2.11a15.58,15.58,0,0,1-5.45,4.06A18.6,18.6,0,0,1,583,420a18.14,18.14,0,0,1-7.14-1.36,15.71,15.71,0,0,1-5.48-3.83,17.32,17.32,0,0,1-3.52-5.9,22.14,22.14,0,0,1-1.25-7.57,21.46,21.46,0,0,1,1.3-7.58,17.45,17.45,0,0,1,3.66-5.91,16.37,16.37,0,0,1,5.65-3.84,18.79,18.79,0,0,1,7.27-1.36,17.74,17.74,0,0,1,6.88,1.24,17.56,17.56,0,0,1,5.26,3.4L594,389.58a1.31,1.31,0,0,1-.39.42,1.14,1.14,0,0,1-.65.16,2,2,0,0,1-1.12-.5,16.46,16.46,0,0,0-1.74-1.1,13,13,0,0,0-2.68-1.11,13.19,13.19,0,0,0-4-.5,13.34,13.34,0,0,0-5.17,1,11.35,11.35,0,0,0-4.05,2.84,13.28,13.28,0,0,0-2.64,4.54,18.38,18.38,0,0,0-.94,6.05,17.72,17.72,0,0,0,1,6.09,13.5,13.5,0,0,0,2.68,4.53,11.31,11.31,0,0,0,4,2.81,12.69,12.69,0,0,0,5,1,20.07,20.07,0,0,0,2.94-.19,11.08,11.08,0,0,0,2.43-.6,9.92,9.92,0,0,0,2.06-1,14.73,14.73,0,0,0,1.9-1.49A1.3,1.3,0,0,1,593.54,412.07Z" transform="translate(-285.63 -256.23)"/><path class="cls-1" d="M611.26,393.38a13.13,13.13,0,0,1,5.1.94,10.93,10.93,0,0,1,3.88,2.68,11.7,11.7,0,0,1,2.46,4.19,18.22,18.22,0,0,1,0,11,11.79,11.79,0,0,1-2.46,4.19,10.88,10.88,0,0,1-3.88,2.66,13.32,13.32,0,0,1-5.1.93,13.53,13.53,0,0,1-5.14-.93,10.92,10.92,0,0,1-3.89-2.66,11.79,11.79,0,0,1-2.46-4.19,18.22,18.22,0,0,1,0-11,11.7,11.7,0,0,1,2.46-4.19,11,11,0,0,1,3.89-2.68A13.34,13.34,0,0,1,611.26,393.38Zm0,23.05a6.63,6.63,0,0,0,5.71-2.57,11.83,11.83,0,0,0,1.89-7.15,12,12,0,0,0-1.89-7.19,6.61,6.61,0,0,0-5.71-2.58,8.06,8.06,0,0,0-3.38.67,6.21,6.21,0,0,0-2.39,1.91,8.39,8.39,0,0,0-1.43,3.07,16.26,16.26,0,0,0-.47,4.12c0,3.06.63,5.45,1.9,7.15A6.71,6.71,0,0,0,611.26,416.43Z" transform="translate(-285.63 -256.23)"/><path class="cls-1" d="M629.29,419.61V393.78H632a1.13,1.13,0,0,1,1.2,1l.33,2.65a13.19,13.19,0,0,1,3.21-2.88,7.59,7.59,0,0,1,4.13-1.12,6.06,6.06,0,0,1,4.22,1.45,8.24,8.24,0,0,1,2.34,3.92,8.39,8.39,0,0,1,1.44-2.42,8,8,0,0,1,2-1.68,8.58,8.58,0,0,1,2.34-1,10.57,10.57,0,0,1,2.51-.3,9.4,9.4,0,0,1,3.63.65,7.09,7.09,0,0,1,2.7,1.9,8.37,8.37,0,0,1,1.7,3.07,13.59,13.59,0,0,1,.59,4.17v16.44h-4.57V403.17a7,7,0,0,0-1.32-4.61,4.75,4.75,0,0,0-3.83-1.56,5.84,5.84,0,0,0-2.13.39,5.09,5.09,0,0,0-1.77,1.16,5.44,5.44,0,0,0-1.21,1.93,7.4,7.4,0,0,0-.45,2.69v16.44h-4.56V403.17a7.24,7.24,0,0,0-1.25-4.64,4.43,4.43,0,0,0-3.65-1.53,5.72,5.72,0,0,0-3.11.9,10.44,10.44,0,0,0-2.63,2.46v19.25Z" transform="translate(-285.63 -256.23)"/><path class="cls-1" d="M675.57,397.79a13.2,13.2,0,0,1,3.78-3.24,9.63,9.63,0,0,1,4.89-1.23,9.4,9.4,0,0,1,4.06.86,8.37,8.37,0,0,1,3.08,2.52,12.21,12.21,0,0,1,2,4.15,21.62,21.62,0,0,1,.68,5.68,17.82,17.82,0,0,1-.76,5.32,12.85,12.85,0,0,1-2.21,4.26,10.2,10.2,0,0,1-8.19,3.86,9.5,9.5,0,0,1-4.07-.8,9.71,9.71,0,0,1-3-2.23v11.42h-4.56V393.78H674a1.12,1.12,0,0,1,1.19,1Zm.23,15.6a7.31,7.31,0,0,0,2.73,2.37,7.75,7.75,0,0,0,3.31.69,6.54,6.54,0,0,0,5.56-2.57c1.3-1.72,1.94-4.17,1.94-7.35a18.75,18.75,0,0,0-.44-4.33,8.48,8.48,0,0,0-1.29-3,5,5,0,0,0-2.07-1.7,6.79,6.79,0,0,0-2.78-.53,7.33,7.33,0,0,0-3.89,1,11.33,11.33,0,0,0-3.07,2.88Z" transform="translate(-285.63 -256.23)"/><path class="cls-1" d="M721.06,393.78v25.83h-2.7a1.15,1.15,0,0,1-1.22-.94l-.36-2.78a14.21,14.21,0,0,1-3.78,3,9.94,9.94,0,0,1-4.79,1.13,9.31,9.31,0,0,1-3.74-.7,7.38,7.38,0,0,1-2.71-2,8.35,8.35,0,0,1-1.65-3.08,14,14,0,0,1-.54-4V393.78h4.54v16.48a6.89,6.89,0,0,0,1.33,4.53,5,5,0,0,0,4.1,1.61,7.81,7.81,0,0,0,3.76-.95,12,12,0,0,0,3.22-2.64v-19Z" transform="translate(-285.63 -256.23)"/><path class="cls-1" d="M736.18,420a6.22,6.22,0,0,1-4.7-1.71,6.81,6.81,0,0,1-1.65-4.92V397.58h-3.11a1,1,0,0,1-.68-.24.93.93,0,0,1-.29-.75v-1.81l4.24-.54,1-8a1.1,1.1,0,0,1,.35-.62,1,1,0,0,1,.7-.25h2.29v8.9h7.47v3.29h-7.47v15.51a3.34,3.34,0,0,0,.79,2.42,2.76,2.76,0,0,0,2,.79,3.55,3.55,0,0,0,1.24-.19,6,6,0,0,0,.91-.42l.65-.42a.79.79,0,0,1,.47-.19.78.78,0,0,1,.64.43l1.32,2.17a8.45,8.45,0,0,1-2.83,1.72A9.72,9.72,0,0,1,736.18,420Z" transform="translate(-285.63 -256.23)"/><path class="cls-1" d="M767.37,416a8.85,8.85,0,0,1-2,1.78,12.52,12.52,0,0,1-2.52,1.23,15.15,15.15,0,0,1-2.76.73,17.07,17.07,0,0,1-2.83.24,13.23,13.23,0,0,1-4.94-.9,10.93,10.93,0,0,1-3.9-2.66,12.15,12.15,0,0,1-2.56-4.32,17.59,17.59,0,0,1-.92-5.91,15.07,15.07,0,0,1,.83-5.05,11.94,11.94,0,0,1,2.38-4.07,11,11,0,0,1,3.8-2.7,12.4,12.4,0,0,1,5-1,11.61,11.61,0,0,1,4.3.77,9.7,9.7,0,0,1,3.42,2.25A10.12,10.12,0,0,1,767,400a13.63,13.63,0,0,1,.82,4.91,3,3,0,0,1-.23,1.42,1,1,0,0,1-.87.36H749.42a15.47,15.47,0,0,0,.67,4.26,8.61,8.61,0,0,0,1.67,3,6.77,6.77,0,0,0,2.56,1.81,8.71,8.71,0,0,0,3.31.6,9.9,9.9,0,0,0,3-.39,14.09,14.09,0,0,0,2.12-.86,15.43,15.43,0,0,0,1.5-.85,1.93,1.93,0,0,1,1-.4,1,1,0,0,1,.87.44Zm-3.67-12.11a8.85,8.85,0,0,0-.45-2.89,6.28,6.28,0,0,0-1.3-2.27,5.77,5.77,0,0,0-2.08-1.48,7.87,7.87,0,0,0-7.94,1.38,8.88,8.88,0,0,0-2.36,5.26Z" transform="translate(-285.63 -256.23)"/><path class="cls-1" d="M777.65,399a11.5,11.5,0,0,1,3-4.14,6.54,6.54,0,0,1,4.36-1.5,6.66,6.66,0,0,1,1.56.18,4.26,4.26,0,0,1,1.34.56l-.33,3.4a.72.72,0,0,1-.76.63,5.39,5.39,0,0,1-1.05-.15,7.34,7.34,0,0,0-1.55-.15,6.35,6.35,0,0,0-2.18.35,5.06,5.06,0,0,0-1.71,1.06,7.32,7.32,0,0,0-1.35,1.74,14.28,14.28,0,0,0-1.09,2.35v16.32h-4.56V393.78h2.6a1.48,1.48,0,0,1,1,.28,1.72,1.72,0,0,1,.38,1Z" transform="translate(-285.63 -256.23)"/><path class="cls-1" d="M832.83,383.07l-14.89,36.54H813.5l-14.89-36.54h3.95a1.65,1.65,0,0,1,1.07.33,2.08,2.08,0,0,1,.61.85L814.55,410c.22.57.43,1.2.65,1.88s.4,1.4.57,2.15c.17-.75.35-1.47.53-2.15s.4-1.31.62-1.88l10.27-25.78a2,2,0,0,1,.6-.81,1.69,1.69,0,0,1,1.09-.37Z" transform="translate(-285.63 -256.23)"/><path class="cls-1" d="M842.34,385.67a2.85,2.85,0,0,1-.27,1.24,3.6,3.6,0,0,1-.71,1,3.27,3.27,0,0,1-1.05.7,3.19,3.19,0,0,1-1.26.26,3.06,3.06,0,0,1-1.24-.26,3.17,3.17,0,0,1-1-.7,3.53,3.53,0,0,1-.69-1,3,3,0,0,1-.26-1.24,3.19,3.19,0,0,1,.26-1.26,3.26,3.26,0,0,1,.69-1,3.17,3.17,0,0,1,1-.7,3.06,3.06,0,0,1,1.24-.26,3.19,3.19,0,0,1,1.26.26,3.27,3.27,0,0,1,1.05.7,3.31,3.31,0,0,1,.71,1A3,3,0,0,1,842.34,385.67Zm-1,8.11v25.83h-4.54V393.78Z" transform="translate(-285.63 -256.23)"/><path class="cls-1" d="M863.86,398a1,1,0,0,1-.94.56,1.73,1.73,0,0,1-.87-.28c-.32-.19-.72-.39-1.18-.62a10.84,10.84,0,0,0-1.67-.64,7.89,7.89,0,0,0-2.3-.29,6.73,6.73,0,0,0-2.07.29,4.79,4.79,0,0,0-1.56.8,3.52,3.52,0,0,0-1,1.19,3.17,3.17,0,0,0-.34,1.46,2.44,2.44,0,0,0,.57,1.66,5,5,0,0,0,1.52,1.15,12.89,12.89,0,0,0,2.14.85c.8.25,1.62.51,2.46.79s1.66.6,2.46.94a8.71,8.71,0,0,1,2.14,1.27,5.54,5.54,0,0,1,2.1,4.54,8.51,8.51,0,0,1-.64,3.3,7.34,7.34,0,0,1-1.89,2.63,8.94,8.94,0,0,1-3.06,1.74,12.45,12.45,0,0,1-4.18.64,13,13,0,0,1-4.9-.88,12.43,12.43,0,0,1-3.72-2.25l1.07-1.74a1.6,1.6,0,0,1,.49-.51,1.27,1.27,0,0,1,.71-.18,1.69,1.69,0,0,1,1,.36c.34.24.75.5,1.24.79a9.23,9.23,0,0,0,1.77.79,8.07,8.07,0,0,0,2.6.36,7.08,7.08,0,0,0,2.32-.35,4.85,4.85,0,0,0,1.66-.93,3.66,3.66,0,0,0,1-1.35,4.23,4.23,0,0,0,.32-1.63,2.68,2.68,0,0,0-.58-1.77,4.83,4.83,0,0,0-1.51-1.2,12.78,12.78,0,0,0-2.16-.87c-.81-.24-1.63-.5-2.47-.78s-1.67-.58-2.48-.93a8.47,8.47,0,0,1-2.15-1.31,6.11,6.11,0,0,1-1.52-1.95,6.33,6.33,0,0,1-.57-2.82,6.85,6.85,0,0,1,.61-2.84,6.93,6.93,0,0,1,1.79-2.4A8.75,8.75,0,0,1,852.9,394a11.49,11.49,0,0,1,3.9-.61,12.3,12.3,0,0,1,4.58.8,10.73,10.73,0,0,1,3.5,2.2Z" transform="translate(-285.63 -256.23)"/><path class="cls-1" d="M876.66,385.67a3,3,0,0,1-.26,1.24,3.63,3.63,0,0,1-.72,1,3.29,3.29,0,0,1-2.31,1,3,3,0,0,1-1.23-.26,3.1,3.1,0,0,1-1-.7,3.53,3.53,0,0,1-.69-1,3,3,0,0,1-.25-1.24,3.18,3.18,0,0,1,.25-1.26,3.26,3.26,0,0,1,.69-1,3.1,3.1,0,0,1,1-.7,3,3,0,0,1,1.23-.26,3.29,3.29,0,0,1,2.31,1,3.34,3.34,0,0,1,.72,1A3.19,3.19,0,0,1,876.66,385.67Zm-1,8.11v25.83h-4.53V393.78Z" transform="translate(-285.63 -256.23)"/><path class="cls-1" d="M894,393.38a13.17,13.17,0,0,1,5.1.94A10.89,10.89,0,0,1,903,397a11.56,11.56,0,0,1,2.46,4.19,18,18,0,0,1,0,11,11.65,11.65,0,0,1-2.46,4.19,10.84,10.84,0,0,1-3.87,2.66,13.36,13.36,0,0,1-5.1.93,13.49,13.49,0,0,1-5.14-.93,10.83,10.83,0,0,1-3.89-2.66,11.79,11.79,0,0,1-2.46-4.19,18.22,18.22,0,0,1,0-11A11.7,11.7,0,0,1,885,397a10.88,10.88,0,0,1,3.89-2.68A13.3,13.3,0,0,1,894,393.38Zm0,23.05a6.63,6.63,0,0,0,5.71-2.57,11.83,11.83,0,0,0,1.89-7.15,12,12,0,0,0-1.89-7.19,6.61,6.61,0,0,0-5.71-2.58,8.06,8.06,0,0,0-3.38.67,6.31,6.31,0,0,0-2.4,1.91,8.55,8.55,0,0,0-1.43,3.07,16.73,16.73,0,0,0-.47,4.12,11.82,11.82,0,0,0,1.9,7.15A6.73,6.73,0,0,0,894,416.43Z" transform="translate(-285.63 -256.23)"/><path class="cls-1" d="M916.34,397.53a15.87,15.87,0,0,1,1.78-1.71,12,12,0,0,1,2-1.31,10,10,0,0,1,2.24-.84,10.4,10.4,0,0,1,2.56-.29,9.31,9.31,0,0,1,3.74.7,7.1,7.1,0,0,1,2.7,2,8.88,8.88,0,0,1,1.65,3.09,13.68,13.68,0,0,1,.56,4v16.44H929V403.17a6.88,6.88,0,0,0-1.34-4.55,5,5,0,0,0-4.06-1.62,7.65,7.65,0,0,0-3.76,1,12.58,12.58,0,0,0-3.23,2.63v19h-4.56V393.78h2.72a1.12,1.12,0,0,1,1.2,1Z" transform="translate(-285.63 -256.23)"/></svg>