<svg id="Layer_1" data-name="Layer 1" xmlns="http://www.w3.org/2000/svg" viewBox="0 0 372.42 93.78"><defs><style>.cls-1{fill:#7ddbda;}.cls-2{fill:#a3a3a3;opacity:0.66;}.cls-3,.cls-4,.cls-5,.cls-6{fill:none;stroke:#000;stroke-miterlimit:10;}.cls-3{stroke-width:0.75px;opacity:0.7;}.cls-4,.cls-5{stroke-width:0.5px;}.cls-5{stroke-dasharray:1.86 1.86;}.cls-6{stroke-width:0.25px;}.cls-7{opacity:0.8;font-size:9px;font-family:OxygenMono-Regular, Oxygen Mono;}.cls-8{opacity:0.77;font-size:13px;font-family:OpenSans, Open Sans;}</style></defs><title>how-to-read</title><circle class="cls-1" cx="100.23" cy="39.35" r="7.17"/><circle class="cls-2" cx="139.65" cy="20.46" r="7.17"/><circle class="cls-3" cx="101.5" cy="78.09" r="7.17"/><circle class="cls-2" cx="140.25" cy="57.64" r="7.17"/><line class="cls-4" x1="108.7" y1="35.44" x2="109.6" y2="35"/><line class="cls-5" x1="111.26" y1="34.16" x2="130.43" y2="24.58"/><line class="cls-4" x1="131.26" y1="24.17" x2="132.15" y2="23.72"/><line class="cls-4" x1="131.83" y1="55.97" x2="130.93" y2="55.52"/><line class="cls-5" x1="129.27" y1="54.69" x2="110.1" y2="45.1"/><line class="cls-4" x1="109.27" y1="44.69" x2="108.38" y2="44.24"/><line class="cls-6" x1="99.81" y1="31.01" x2="99.81" y2="15.59"/><polygon points="101.69 16.14 99.81 12.88 97.92 16.14 101.69 16.14"/><line class="cls-6" x1="75.88" y1="39.52" x2="81.78" y2="39.52"/><polygon points="81.23 41.41 84.49 39.52 81.23 37.64 81.23 41.41"/><line class="cls-6" x1="149.05" y1="20.46" x2="156.79" y2="20.46"/><polygon points="156.24 22.34 159.5 20.46 156.24 18.58 156.24 22.34"/><line class="cls-6" x1="110.4" y1="77.93" x2="118.15" y2="77.93"/><polygon points="117.6 79.81 120.86 77.93 117.6 76.05 117.6 79.81"/><text class="cls-7" transform="translate(17.38 7.78)">Product that the country exports</text><text class="cls-7" transform="translate(123.18 80)">Product that the country does not export and<tspan x="0" y="10.8">does not have related capabilities</tspan></text><text class="cls-7" transform="translate(161.78 23.39)">Country’s “nearby” opportunity, in<tspan x="0" y="10.8">requiring similar capabilities to those</tspan><tspan x="0" y="21.6">existing, but is not yet exported</tspan></text><text x="-3.84" y="-4.04"/><text class="cls-8" transform="translate(0 44.21)">How to read</text></svg>