<svg id="Layer_1" data-name="Layer 1" xmlns="http://www.w3.org/2000/svg" viewBox="0 0 453.76 67.38"><defs><style>.cls-1{fill:#7ddbda;}.cls-2{fill:#a3a3a3;opacity:0.66;}.cls-3,.cls-4,.cls-5,.cls-7{fill:none;stroke:#000;stroke-miterlimit:10;}.cls-3,.cls-4{stroke-width:0.5px;}.cls-4{stroke-dasharray:1.86 1.86;}.cls-5{stroke-width:0.25px;}.cls-6{opacity:0.8;font-size:9px;font-family:OxygenMono-Regular, Oxygen Mono;}.cls-7{stroke-width:0.62px;opacity:0.7;}</style></defs><title>how-to-read2</title><circle class="cls-1" cx="109.77" cy="26.06" r="7.17"/><circle class="cls-2" cx="149.19" cy="7.17" r="7.17"/><circle class="cls-2" cx="149.79" cy="44.34" r="7.17"/><line class="cls-3" x1="118.24" y1="22.15" x2="119.13" y2="21.7"/><line class="cls-4" x1="120.8" y1="20.87" x2="139.97" y2="11.29"/><line class="cls-3" x1="140.8" y1="10.87" x2="141.69" y2="10.42"/><line class="cls-3" x1="141.37" y1="42.67" x2="140.47" y2="42.22"/><line class="cls-4" x1="138.81" y1="41.39" x2="119.64" y2="31.81"/><line class="cls-3" x1="118.81" y1="31.39" x2="117.91" y2="30.94"/><line class="cls-5" x1="100.98" y1="26.23" x2="91.41" y2="26.23"/><polygon points="91.96 24.35 88.7 26.23 91.96 28.11 91.96 24.35"/><line class="cls-5" x1="158.59" y1="7.17" x2="166.33" y2="7.17"/><polygon points="165.78 9.05 169.04 7.17 165.78 5.28 165.78 9.05"/><text class="cls-6" transform="translate(0.32 24.59)">Product that the<tspan x="0" y="10.8">country exports</tspan></text><text class="cls-6" transform="translate(171.32 10.09)">Country’s “nearby” opportunity, in<tspan x="0" y="10.8">requiring similar capabilities to those</tspan><tspan x="0" y="21.6">existing, but is not yet exported</tspan></text><circle class="cls-7" cx="6.26" cy="60.67" r="5.95"/><line class="cls-5" x1="14.49" y1="61.02" x2="22.24" y2="61.02"/><polygon points="21.68 62.9 24.94 61.02 21.68 59.14 21.68 62.9"/><text class="cls-6" transform="translate(27.09 64.4)">Product that the country does not export and does not have related capabilities</text></svg>