<svg id="Layer_1" data-name="Layer 1" xmlns="http://www.w3.org/2000/svg" viewBox="0 0 176.04 23.44"><path d="M14.25,10.87c0,.83,0,1.67,0,2.51a.35.35,0,0,0,.2.35l4.34,2.49a.46.46,0,0,1,.26.46c0,1.71,0,3.43,0,5.14a.5.5,0,0,1-.29.49c-1.49.85-3,1.7-4.46,2.57a.47.47,0,0,1-.53,0L9.44,22.37a.33.33,0,0,0-.37,0L4.72,24.89a.41.41,0,0,1-.48,0l-4.52-2.6a.44.44,0,0,1-.25-.44V16.66a.44.44,0,0,1,.24-.43l4.35-2.5a.35.35,0,0,0,.2-.35c0-1.66,0-3.33,0-5a.44.44,0,0,1,.26-.44Q6.76,6.65,9,5.35a.45.45,0,0,1,.51,0C11,6.22,12.51,7.08,14,8a.4.4,0,0,1,.24.4C14.25,9.19,14.25,10,14.25,10.87Zm4.11,5.62-.19-.12c-1.32-.76-2.63-1.51-3.93-2.28a.36.36,0,0,0-.4,0L9.91,16.37l-.19.12.07.05,4.13,2.39a.35.35,0,0,0,.28,0l3.95-2.28Zm-8.87-.4L9.61,16l4.08-2.35a.28.28,0,0,0,.14-.28c0-1.53,0-3.07,0-4.6a1.42,1.42,0,0,0,0-.19l-.14.06q-2,1.19-4.05,2.34a.26.26,0,0,0-.14.28v4.57C9.48,15.94,9.49,16,9.49,16.09Zm-9.33.39a.74.74,0,0,0,.12.09l4.07,2.36a.35.35,0,0,0,.28,0q2-1.14,4-2.29l.17-.11s0,0,0,0c-1.39-.8-2.77-1.61-4.16-2.4a.32.32,0,0,0-.27,0c-.52.29-1,.6-1.56.9ZM9,16.09A.49.49,0,0,0,9,16c0-1.57,0-3.15,0-4.73,0-.15-.09-.19-.19-.25L4.92,8.73l-.23-.12v.23c0,1.51,0,3,0,4.54a.33.33,0,0,0,.21.34L8.8,16Zm.48.81c0,.06,0,.09,0,.11,0,1.57,0,3.15,0,4.73a.33.33,0,0,0,.15.23q2,1.17,4,2.31a.93.93,0,0,0,.2.09v-.24c0-1.5,0-3,0-4.52a.33.33,0,0,0-.2-.34L9.72,17ZM4.69,24.38l.15-.07c1.35-.78,2.7-1.57,4.06-2.34A.28.28,0,0,0,9,21.69c0-1.53,0-3.06,0-4.59C9,17,9,17,9,16.92l-.08,0L4.81,19.33a.3.3,0,0,0-.12.24v4.81Zm9.57,0,.12-.05c1.36-.79,2.72-1.57,4.08-2.37a.35.35,0,0,0,.13-.26V17.11c0-.06,0-.12,0-.2l-.16.07c-1.34.77-2.67,1.55-4,2.31a.3.3,0,0,0-.16.3c0,1.52,0,3,0,4.57C14.25,24.22,14.26,24.28,14.26,24.37Z" transform="translate(0.53 -2.98)"/><path d="M32.14,11.87h-1.2L30.05,9.1H27.48l-.88,2.77H25.41L28.1,3.14h1.34ZM29.83,8.15l-1-3.46L27.71,8.15Z" transform="translate(0.53 -2.98)"/><path d="M37,7.73c1.08,1,1.65,2.71,2.31,4.14H38a14,14,0,0,0-2-3.83A4.93,4.93,0,0,0,35.07,8h-.51v3.88h-1.1V3.14h1.7c2,0,3.75.3,3.75,2.33A2.24,2.24,0,0,1,37,7.73Zm.72-2.25c0-1.1-.92-1.49-2-1.49H34.56V7.05h.84C36.64,7.05,37.69,6.71,37.69,5.48Z" transform="translate(0.53 -2.98)"/><path d="M48.78,3.14c2.82,0,4.34,1.6,4.34,4.36s-1.52,4.37-4.45,4.37h-1.1V3.14ZM52,7.5C52,5.28,51,4,48.66,4v7C51,11,52,9.72,52,7.5Z" transform="translate(0.53 -2.98)"/><path d="M60.94,11.87h-1.2L58.86,9.1H56.28l-.87,2.77h-1.2l2.7-8.73h1.33ZM58.63,8.15l-1-3.46L56.51,8.15Z" transform="translate(0.53 -2.98)"/><path d="M68.2,4H65.31v7.88h-1.1V4H61.35V3.14H68.2Z" transform="translate(0.53 -2.98)"/><path d="M75.35,11.87H74.14L73.26,9.1H70.69l-.88,2.77h-1.2l2.7-8.73h1.33ZM73,8.15,72,4.69,70.92,8.15Z" transform="translate(0.53 -2.98)"/><path d="M89.65,3.14,87,11.87H85.74L83.11,3.14h1.21l2.08,7.43,2-7.43Z" transform="translate(0.53 -2.98)"/><path d="M91.12,3.14h4.93V4H94.11v7h1.94v.85H91.12V11H93V4H91.12Z" transform="translate(0.53 -2.98)"/><path d="M100.66,11.11a1.41,1.41,0,0,0,1.46-1.6c0-1.18-1.19-1.49-2-1.84-1-.43-2-1-2-2.38S99.22,3,100.72,3a3.65,3.65,0,0,1,2.31.66l-.42.84a3,3,0,0,0-1.83-.59,1.35,1.35,0,0,0-1.5,1.41c0,1.08,1.28,1.36,2,1.69,1,.45,2,1,2,2.45A2.42,2.42,0,0,1,100.63,12a4.62,4.62,0,0,1-2.62-.7l.42-1A3.47,3.47,0,0,0,100.66,11.11Z" transform="translate(0.53 -2.98)"/><path d="M105.14,8.7V3.14h1.1V8.66c0,1.39.34,2.45,1.74,2.45s1.75-1.06,1.75-2.45V3.14h1.09V8.7c0,2.08-.83,3.32-2.84,3.32S105.14,10.78,105.14,8.7Z" transform="translate(0.53 -2.98)"/><path d="M118.55,11.87h-1.2l-.88-2.77h-2.58L113,11.87h-1.2l2.7-8.73h1.33Zm-2.31-3.72-1-3.46-1.08,3.46Z" transform="translate(0.53 -2.98)"/><path d="M125.4,11v.85h-5.25V3.14h1.1V11Z" transform="translate(0.53 -2.98)"/><path d="M127.12,3.14h4.93V4h-1.94v7h1.94v.85h-4.93V11H129V4h-1.9Z" transform="translate(0.53 -2.98)"/><path d="M139,11v.85h-5.23V11l3.79-7H134V3.14h5.08v.74L135.2,11Z" transform="translate(0.53 -2.98)"/><path d="M147.36,11.87h-1.2l-.89-2.77H142.7l-.88,2.77h-1.2l2.7-8.73h1.34Zm-2.31-3.72-1-3.46-1.08,3.46Z" transform="translate(0.53 -2.98)"/><path d="M154.62,4h-2.9v7.88h-1.09V4h-2.86V3.14h6.85Z" transform="translate(0.53 -2.98)"/><path d="M155.93,3.14h4.93V4h-1.94v7h1.94v.85h-4.93V11h1.89V4h-1.89Z" transform="translate(0.53 -2.98)"/><path d="M162.71,7.5c0-2.21.7-4.51,2.88-4.51s2.88,2.3,2.88,4.51c0,2.4-.89,4.52-2.88,4.52S162.71,9.9,162.71,7.5Zm1.15,0c0,2,.58,3.61,1.73,3.61s1.73-1.59,1.73-3.61-.57-3.61-1.73-3.61S163.86,5.48,163.86,7.5Z" transform="translate(0.53 -2.98)"/><path d="M174.22,11.87l-3.15-7.06v7.06h-1V3.14h1.26l3.2,7v-7h1v8.73Z" transform="translate(0.53 -2.98)"/><path d="M27.54,25.42h4.32l-.09.85H26.44V17.54h5.22l-.09.85h-4v2.94h3.84v.94H27.54Z" transform="translate(0.53 -2.98)"/><path d="M34.36,17.54l1.7,3.51,1.83-3.51h1.33L36.76,21.8l2.51,4.47H37.84L36,22.57l-1.9,3.7H32.68l2.62-4.46-2.39-4.27Z" transform="translate(0.53 -2.98)"/><path d="M41.7,22.72v3.55H40.61V17.54H43c1.9,0,3.53.61,3.53,2.51C46.55,22.55,44.41,22.72,41.7,22.72Zm1.69-.95c1.08,0,2-.54,2-1.67s-.9-1.71-2-1.71H41.7v3.38Z" transform="translate(0.53 -2.98)"/><path d="M49.14,25.42h4.32l-.09.85H48.05V17.54h5.22l-.1.85h-4v2.94H53v.94H49.14Z" transform="translate(0.53 -2.98)"/><path d="M58.57,22.13c1.08,1,1.66,2.71,2.31,4.14H59.61a14,14,0,0,0-2-3.83,5,5,0,0,0-.89-.06h-.51v3.88H55.07V17.54h1.7c2,0,3.74.3,3.74,2.33A2.22,2.22,0,0,1,58.57,22.13Zm.72-2.25c0-1.1-.92-1.49-2-1.49H56.16v3.06H57C58.24,21.45,59.29,21.11,59.29,19.88Z" transform="translate(0.53 -2.98)"/><path d="M62.31,17.54h4.93v.85H65.3v7h1.94v.85H62.31v-.85h1.9v-7h-1.9Z" transform="translate(0.53 -2.98)"/><path d="M70.34,26.27H69.25V17.54h1.5l1.24,4,1.25-4H74.7v8.73H73.64v-7.2l-1,3.42H71.38l-1-3.42Z" transform="translate(0.53 -2.98)"/><path d="M78,25.42h4.32l-.09.85H76.85V17.54h5.22l-.09.85H78v2.94h3.83v.94H78Z" transform="translate(0.53 -2.98)"/><path d="M87.81,26.27l-3.15-7.06v7.06h-1V17.54h1.26l3.2,7v-7h1v8.73Z" transform="translate(0.53 -2.98)"/><path d="M97,18.39h-2.9v7.88H93V18.39H90.16v-.85H97Z" transform="translate(0.53 -2.98)"/><path d="M100.66,25.51a1.41,1.41,0,0,0,1.46-1.6c0-1.18-1.19-1.49-2-1.84-1-.43-2-.95-2-2.38s1.16-2.3,2.66-2.3A3.65,3.65,0,0,1,103,18l-.42.84a3,3,0,0,0-1.83-.59,1.35,1.35,0,0,0-1.5,1.42c0,1.07,1.28,1.35,2,1.68,1,.45,2,1,2,2.45a2.42,2.42,0,0,1-2.73,2.58,4.62,4.62,0,0,1-2.62-.7l.42-1A3.47,3.47,0,0,0,100.66,25.51Z" transform="translate(0.53 -2.98)"/></svg>